<svg width="30.000000" height="30.000000" viewBox="0 0 30 30" fill="none" xmlns="http://www.w3.org/2000/svg" xmlns:xlink="http://www.w3.org/1999/xlink">
	<desc>
			Created with Pixso.
	</desc>
	<defs>
		<clipPath id="clip23_10764">
			<rect id="drone-svgrepo-com (1) 1" width="20.000000" height="20.000000" transform="translate(5.000000 5.000000)" fill="white" fill-opacity="0"/>
		</clipPath>
		<clipPath id="clip23_10763">
			<rect id="Button Circle" rx="15.000000" width="30.000000" height="30.000000" fill="white" fill-opacity="0"/>
		</clipPath>
	</defs>
	<rect id="Button Circle" rx="15.000000" width="30.000000" height="30.000000" fill="#FFFFFF" fill-opacity="1.000000"/>
	<g clip-path="url(#clip23_10763)">
		<rect id="drone-svgrepo-com (1) 1" width="20.000000" height="20.000000" transform="translate(5.000000 5.000000)" fill="#FFFFFF" fill-opacity="0"/>
		<g clip-path="url(#clip23_10764)">
			<path id="Vector" d="M20.32 15.64C19.57 15.64 18.85 15.82 18.22 16.14C18.35 15.78 18.42 15.4 18.42 15C18.42 14.59 18.35 14.21 18.22 13.85C18.85 14.17 19.57 14.35 20.32 14.35C22.9 14.35 25 12.25 25 9.67C25 7.09 22.9 5 20.32 5C17.74 5 15.64 7.09 15.64 9.67C15.64 10.42 15.82 11.14 16.14 11.77C15.78 11.64 15.4 11.57 15 11.57C14.59 11.57 14.21 11.64 13.85 11.77C14.17 11.14 14.35 10.42 14.35 9.67C14.35 7.09 12.25 5 9.67 5C7.09 5 5 7.09 5 9.67C5 12.25 7.09 14.35 9.67 14.35C10.42 14.35 11.14 14.17 11.77 13.85C11.64 14.21 11.57 14.59 11.57 15C11.57 15.4 11.64 15.78 11.77 16.14C11.14 15.82 10.42 15.64 9.67 15.64C7.09 15.64 5 17.74 5 20.32C5 22.9 7.09 25 9.67 25C12.25 25 14.35 22.9 14.35 20.32C14.35 19.57 14.17 18.85 13.85 18.22C14.21 18.35 14.59 18.42 15 18.42C15.4 18.42 15.78 18.35 16.14 18.22C15.82 18.85 15.64 19.57 15.64 20.32C15.64 22.9 17.74 25 20.32 25C22.9 25 25 22.9 25 20.32C25 17.74 22.9 15.64 20.32 15.64ZM20.32 5.58C22.57 5.58 24.41 7.42 24.41 9.67C24.41 11.93 22.57 13.76 20.32 13.76C19.3 13.76 18.36 13.39 17.64 12.76L19.91 10.5C20.03 10.56 20.17 10.59 20.32 10.59C20.46 10.59 20.6 10.56 20.73 10.5L22.32 12.09C22.38 12.15 22.46 12.18 22.53 12.18C22.61 12.18 22.68 12.15 22.74 12.09C22.85 11.98 22.85 11.79 22.74 11.68L21.14 10.08C21.2 9.96 21.24 9.82 21.24 9.67C21.24 9.43 21.14 9.2 20.97 9.02C20.79 8.85 20.56 8.75 20.32 8.75C20.17 8.75 20.03 8.79 19.91 8.85L18.31 7.25C18.2 7.14 18.01 7.14 17.9 7.25C17.78 7.37 17.78 7.55 17.9 7.67L19.49 9.26C19.43 9.39 19.4 9.53 19.4 9.67C19.4 9.82 19.43 9.96 19.49 10.08L17.23 12.35C16.6 11.63 16.23 10.69 16.23 9.67C16.23 7.42 18.06 5.58 20.32 5.58ZM20.32 9.34C20.41 9.34 20.49 9.37 20.55 9.44C20.62 9.5 20.65 9.58 20.65 9.67C20.65 9.76 20.62 9.84 20.55 9.91C20.49 9.97 20.41 10 20.32 10C20.23 10 20.15 9.97 20.08 9.91C20.02 9.84 19.99 9.76 19.99 9.67C19.99 9.58 20.02 9.5 20.08 9.44C20.15 9.37 20.23 9.34 20.32 9.34ZM5.58 9.67C5.58 7.42 7.42 5.58 9.67 5.58C11.93 5.58 13.76 7.42 13.76 9.67C13.76 10.69 13.39 11.63 12.76 12.35L10.5 10.08C10.56 9.96 10.59 9.82 10.59 9.67C10.59 9.53 10.56 9.39 10.5 9.26L12.09 7.67C12.21 7.55 12.21 7.37 12.09 7.25C11.98 7.14 11.79 7.14 11.68 7.25L10.08 8.85C9.96 8.79 9.82 8.75 9.67 8.75C9.43 8.75 9.2 8.85 9.02 9.02C8.85 9.2 8.75 9.43 8.75 9.67C8.75 9.82 8.79 9.96 8.85 10.08L7.25 11.68C7.14 11.79 7.14 11.98 7.25 12.09C7.31 12.15 7.38 12.18 7.46 12.18C7.53 12.18 7.61 12.15 7.67 12.09L9.26 10.5C9.39 10.56 9.53 10.59 9.67 10.59C9.82 10.59 9.96 10.56 10.08 10.5L12.35 12.76C11.63 13.39 10.69 13.76 9.67 13.76C7.42 13.76 5.58 11.93 5.58 9.67ZM9.67 10C9.58 10 9.5 9.97 9.44 9.91C9.37 9.84 9.34 9.76 9.34 9.67C9.34 9.58 9.37 9.5 9.44 9.44C9.5 9.37 9.58 9.34 9.67 9.34C9.76 9.34 9.84 9.37 9.91 9.44C9.97 9.5 10 9.58 10 9.67C10 9.76 9.97 9.84 9.91 9.91C9.84 9.97 9.76 10 9.67 10ZM9.67 24.41C7.42 24.41 5.58 22.57 5.58 20.32C5.58 18.06 7.42 16.23 9.67 16.23C10.69 16.23 11.63 16.6 12.35 17.23L10.08 19.49C9.96 19.43 9.82 19.4 9.67 19.4C9.53 19.4 9.39 19.43 9.26 19.49L7.67 17.9C7.55 17.78 7.37 17.78 7.25 17.9C7.14 18.01 7.14 18.2 7.25 18.31L8.85 19.91C8.79 20.03 8.75 20.17 8.75 20.32C8.75 20.56 8.85 20.79 9.02 20.97C9.2 21.14 9.43 21.24 9.67 21.24C9.82 21.24 9.96 21.2 10.08 21.14L11.68 22.74C11.74 22.8 11.81 22.83 11.89 22.83C11.96 22.83 12.04 22.8 12.09 22.74C12.21 22.62 12.21 22.44 12.09 22.32L10.5 20.73C10.56 20.6 10.59 20.46 10.59 20.32C10.59 20.17 10.56 20.03 10.5 19.91L12.76 17.64C13.39 18.36 13.76 19.3 13.76 20.32C13.76 22.57 11.93 24.41 9.67 24.41ZM9.67 20.65C9.58 20.65 9.5 20.62 9.44 20.55C9.37 20.49 9.34 20.41 9.34 20.32C9.34 20.23 9.37 20.15 9.44 20.08C9.5 20.02 9.58 19.99 9.67 19.99C9.76 19.99 9.84 20.02 9.91 20.08C9.97 20.15 10 20.23 10 20.32C10 20.41 9.97 20.49 9.91 20.55C9.84 20.62 9.76 20.65 9.67 20.65ZM12.16 15C12.16 13.43 13.43 12.16 15 12.16C16.56 12.16 17.83 13.43 17.83 15C17.83 16.56 16.56 17.83 15 17.83C13.43 17.83 12.16 16.56 12.16 15ZM20.32 24.41C18.06 24.41 16.23 22.57 16.23 20.32C16.23 19.3 16.6 18.36 17.23 17.64L19.49 19.91C19.43 20.03 19.4 20.17 19.4 20.32C19.4 20.46 19.43 20.6 19.49 20.73L17.9 22.32C17.78 22.44 17.78 22.62 17.9 22.74C17.95 22.8 18.03 22.83 18.1 22.83C18.18 22.83 18.25 22.8 18.31 22.74L19.91 21.14C20.03 21.2 20.17 21.24 20.32 21.24C20.56 21.24 20.79 21.14 20.97 20.97C21.14 20.79 21.24 20.56 21.24 20.32C21.24 20.17 21.2 20.03 21.14 19.91L22.74 18.31C22.85 18.2 22.85 18.01 22.74 17.9C22.62 17.78 22.44 17.78 22.32 17.9L20.73 19.49C20.6 19.43 20.46 19.4 20.32 19.4C20.17 19.4 20.03 19.43 19.91 19.49L17.64 17.23C18.36 16.6 19.3 16.23 20.32 16.23C22.57 16.23 24.41 18.06 24.41 20.32C24.41 22.57 22.57 24.41 20.32 24.41ZM20.32 19.99C20.41 19.99 20.49 20.02 20.55 20.08C20.62 20.15 20.65 20.23 20.65 20.32C20.65 20.41 20.62 20.49 20.55 20.55C20.49 20.62 20.41 20.65 20.32 20.65C20.23 20.65 20.15 20.62 20.08 20.55C20.02 20.49 19.99 20.41 19.99 20.32C19.99 20.23 20.02 20.15 20.08 20.08C20.15 20.02 20.23 19.99 20.32 19.99Z" fill="#000000" fill-opacity="1.000000" fill-rule="nonzero"/>
			<path id="Vector" d="M16.81 13.79C16.72 13.66 16.53 13.62 16.4 13.71C16.26 13.8 16.23 13.98 16.32 14.12C16.49 14.38 16.58 14.68 16.58 15C16.58 15.87 15.87 16.58 15 16.58C14.12 16.58 13.41 15.87 13.41 15C13.41 14.12 14.12 13.41 15 13.41C15.18 13.41 15.35 13.44 15.52 13.5C15.67 13.55 15.84 13.47 15.9 13.32C15.95 13.17 15.87 13 15.72 12.95C15.49 12.86 15.24 12.82 15 12.82C13.8 12.82 12.82 13.8 12.82 15C12.82 16.19 13.8 17.17 15 17.17C16.19 17.17 17.17 16.19 17.17 15C17.17 14.57 17.04 14.15 16.81 13.79Z" fill="#000000" fill-opacity="1.000000" fill-rule="nonzero"/>
		</g>
	</g>
</svg>
