<svg aria-hidden="true" version="1.1" xmlns="http://www.w3.org/2000/svg" xmlns:xlink="http://www.w3.org/1999/xlink">
<defs>
<symbol id="icon-applepay" viewBox="0 0 78 32">
<path  d="M14.179 4.11c-0.909 1.077-2.365 1.926-3.82 1.805-0.182-1.456 0.531-3.003 1.364-3.959 0.909-1.107 2.501-1.896 3.79-1.957 0.152 1.517-0.44 3.003-1.334 4.11zM15.498 6.204c-2.107-0.121-3.911 1.198-4.911 1.198-1.016 0-2.547-1.138-4.214-1.107-2.168 0.030-4.184 1.259-5.29 3.216-2.274 3.913-0.591 9.707 1.607 12.892 1.076 1.577 2.365 3.307 4.062 3.246 1.607-0.061 2.243-1.047 4.184-1.047 1.955 0 2.516 1.047 4.214 1.016 1.758-0.030 2.865-1.577 3.941-3.155 1.228-1.79 1.728-3.534 1.758-3.625-0.030-0.030-3.395-1.32-3.426-5.203-0.030-3.246 2.653-4.793 2.774-4.884-1.516-2.245-3.88-2.487-4.699-2.548zM27.67 1.805v23.646h3.668v-8.084h5.078c4.638 0 7.897-3.185 7.897-7.796s-3.198-7.766-7.776-7.766zM31.338 4.899h4.229c3.183 0 5.002 1.699 5.002 4.687s-1.819 4.702-5.017 4.702h-4.214zM51.013 25.633c2.304 0 4.441-1.168 5.411-3.018h0.076v2.836h3.395v-11.77c0-3.413-2.728-5.612-6.927-5.612-3.896 0-6.776 2.23-6.882 5.293h3.304c0.273-1.456 1.622-2.412 3.471-2.412 2.243 0 3.502 1.047 3.502 2.973v1.304l-4.578 0.273c-4.259 0.258-6.563 2.002-6.563 5.036 0 3.064 2.38 5.096 5.79 5.096zM51.998 22.827c-1.955 0-3.198-0.94-3.198-2.381 0-1.486 1.197-2.351 3.486-2.488l4.078-0.258v1.335c0 2.214-1.88 3.792-4.365 3.792zM64.428 31.882c3.577 0 5.26-1.365 6.73-5.506l6.442-18.080h-3.729l-4.32 13.969h-0.076l-4.32-13.969h-3.835l6.215 17.215-0.333 1.047c-0.561 1.775-1.47 2.457-3.092 2.457-0.288 0-0.849-0.030-1.076-0.061v2.836c0.212 0.061 1.122 0.091 1.395 0.091z"></path>
</symbol>
<symbol id="icon-facebook" viewBox="0 0 20 32">
<path fill="none" stroke="#667085" stroke-linejoin="round" stroke-linecap="round" stroke-miterlimit="4" stroke-width="2.0089" d="M17.777 1.185h-4.444c-1.965 0-3.849 0.78-5.238 2.17s-2.17 3.273-2.17 5.238v4.444h-4.444v5.926h4.444v11.852h5.926v-11.852h4.444l1.481-5.926h-5.926v-4.444c0-0.393 0.156-0.77 0.434-1.048s0.655-0.434 1.048-0.434h4.444v-5.926z"></path>
</symbol>
<symbol id="icon-globe" viewBox="0 0 34 32">
<path fill="#667085" d="M22.457 15.158l0.951 0.020c0-0.013 0-0.026 0-0.040l-0.951 0.020zM11.229 15.158l-0.951-0.020c-0 0.013-0 0.026 0 0.040l0.951-0.020zM29.926 15.158c0 7.226-5.858 13.084-13.084 13.084v1.903c8.277 0 14.987-6.71 14.987-14.987h-1.903zM16.843 28.241c-7.226 0-13.083-5.858-13.083-13.084h-1.903c0 8.277 6.71 14.987 14.987 14.987v-1.903zM3.759 15.158c0-7.226 5.858-13.084 13.083-13.084v-1.903c-8.277 0-14.987 6.71-14.987 14.987h1.903zM16.843 2.074c7.226 0 13.084 5.858 13.084 13.084h1.903c0-8.277-6.71-14.987-14.987-14.987v1.903zM2.808 16.109h28.070v-1.903h-28.070v1.903zM16.14 1.764c3.355 3.673 5.262 8.44 5.365 13.413l1.903-0.040c-0.113-5.435-2.197-10.643-5.863-14.657l-1.405 1.284zM21.505 15.138c-0.104 4.974-2.010 9.74-5.365 13.413l1.405 1.284c3.666-4.014 5.75-9.222 5.863-14.657l-1.903-0.040zM17.545 28.551c-3.355-3.673-5.262-8.44-5.365-13.413l-1.903 0.040c0.113 5.435 2.197 10.643 5.863 14.657l1.405-1.284zM12.18 15.177c0.104-4.974 2.010-9.74 5.365-13.413l-1.405-1.284c-3.666 4.014-5.75 9.222-5.863 14.657l1.903 0.040z"></path>
</symbol>
<symbol id="icon-instagram" viewBox="0 0 32 32">
<path fill="#667085" d="M21.927 15.066v0zM16.934 10.074v0zM24.149 6.847c-0.555 0-1.004 0.45-1.004 1.004s0.45 1.004 1.004 1.004v-2.009zM24.164 8.856c0.555 0 1.004-0.45 1.004-1.004s-0.45-1.004-1.004-1.004v2.009zM8.593 2.189h14.815v-2.009h-14.815v2.009zM23.408 2.189c3.536 0 6.403 2.867 6.403 6.403h2.009c0-4.646-3.766-8.412-8.412-8.412v2.009zM29.811 8.592v14.815h2.009v-14.815h-2.009zM29.811 23.407c0 3.536-2.867 6.403-6.403 6.403v2.009c4.646 0 8.412-3.766 8.412-8.412h-2.009zM23.408 29.81h-14.815v2.009h14.815v-2.009zM8.593 29.81c-3.536 0-6.403-2.867-6.403-6.403h-2.009c0 4.646 3.766 8.412 8.412 8.412v-2.009zM2.19 23.407v-14.815h-2.009v14.815h2.009zM2.19 8.592c0-3.536 2.867-6.403 6.403-6.403v-2.009c-4.646 0-8.412 3.766-8.412 8.412h2.009zM20.933 15.214c0.152 1.024-0.023 2.070-0.5 2.989l1.783 0.925c0.671-1.294 0.918-2.767 0.704-4.208l-1.987 0.295zM20.433 18.202c-0.477 0.919-1.231 1.664-2.156 2.129l0.903 1.794c1.302-0.655 2.364-1.705 3.036-2.999l-1.783-0.925zM18.277 20.332c-0.925 0.465-1.973 0.627-2.995 0.463l-0.319 1.983c1.439 0.232 2.915 0.004 4.217-0.652l-0.903-1.794zM15.283 20.795c-1.022-0.164-1.966-0.647-2.698-1.379l-1.421 1.42c1.031 1.031 2.36 1.71 3.8 1.942l0.319-1.983zM12.585 19.416c-0.732-0.732-1.214-1.676-1.379-2.698l-1.983 0.319c0.232 1.439 0.911 2.769 1.942 3.799l1.421-1.42zM11.206 16.718c-0.164-1.022-0.002-2.070 0.463-2.995l-1.794-0.903c-0.655 1.302-0.883 2.778-0.652 4.217l1.983-0.319zM11.669 13.723c0.465-0.925 1.21-1.679 2.129-2.156l-0.925-1.783c-1.294 0.671-2.343 1.734-2.999 3.036l1.794 0.903zM13.798 11.567c0.919-0.477 1.965-0.652 2.989-0.5l0.295-1.987c-1.442-0.214-2.915 0.032-4.209 0.704l0.925 1.783zM16.787 11.067c1.045 0.155 2.011 0.642 2.758 1.388l1.42-1.421c-1.051-1.051-2.413-1.737-3.884-1.955l-0.295 1.987zM19.545 12.456c0.747 0.747 1.233 1.714 1.388 2.758l1.987-0.295c-0.218-1.471-0.903-2.833-1.955-3.884l-1.42 1.421zM24.149 8.856h0.015v-2.009h-0.015v2.009z"></path>
</symbol>
<symbol id="icon-mastercard" viewBox="0 0 53 32">
<path fill="#98a2b3"  d="M25.552 27.038c-2.706 2.281-6.217 3.659-10.053 3.659-8.56 0-15.499-6.856-15.499-15.314s6.939-15.314 15.499-15.314c3.836 0 7.347 1.377 10.053 3.658 2.706-2.281 6.217-3.658 10.053-3.658 8.56 0 15.499 6.856 15.499 15.314s-6.939 15.314-15.499 15.314c-3.836 0-7.347-1.377-10.053-3.659z"></path>
<path fill="#98a2b3"  d="M25.551 27.038c3.332-2.809 5.445-6.988 5.445-11.656s-2.113-8.847-5.445-11.656c2.706-2.281 6.217-3.658 10.053-3.658 8.56 0 15.499 6.856 15.499 15.314s-6.939 15.314-15.499 15.314c-3.836 0-7.347-1.377-10.053-3.659z"></path>
<path fill="#fff" d="M25.553 27.038c3.332-2.809 5.445-6.988 5.445-11.656s-2.113-8.847-5.445-11.656c-3.332 2.809-5.446 6.989-5.446 11.656s2.113 8.847 5.446 11.656z"></path>
</symbol>
<symbol id="icon-point" viewBox="0 0 32 32">
<path d="M15.945 31.173c-4.149 0-7.685-1.481-10.602-4.443-2.924-2.962-4.379-6.548-4.379-10.757s1.456-7.795 4.379-10.757c2.917-2.962 6.454-4.443 10.602-4.443 4.3 0 7.837 1.481 10.602 4.443 2.918 2.962 4.379 6.548 4.379 10.757s-1.462 7.795-4.379 10.757c-2.766 2.962-6.302 4.443-10.602 4.443z"></path>
</symbol>
<symbol id="icon-visa" viewBox="0 0 100 32">
<path fill="#98a2b3"  d="M27 31.433h-8.239l-6.178-24.263c-0.293-1.116-0.916-2.103-1.832-2.568-2.286-1.169-4.804-2.099-7.552-2.568v-0.934h13.272c1.832 0 3.206 1.403 3.435 3.033l3.206 17.502 8.235-20.535h8.010l-12.356 30.333zM43.936 31.433h-7.781l6.407-30.333h7.781l-6.407 30.333zM60.41 9.503c0.229-1.634 1.603-2.568 3.206-2.568 2.519-0.235 5.262 0.235 7.552 1.399l1.374-6.531c-2.29-0.934-4.808-1.403-7.094-1.403-7.552 0-13.048 4.202-13.048 10.033 0 4.436 3.892 6.765 6.64 8.169 2.972 1.399 4.117 2.333 3.888 3.733 0 2.099-2.29 3.033-4.576 3.033-2.748 0-5.495-0.7-8.010-1.868l-1.374 6.535c2.748 1.165 5.72 1.634 8.468 1.634 8.468 0.23 13.73-3.967 13.73-10.268 0-7.934-10.758-8.399-10.758-11.897zM98.399 31.433l-6.178-30.333h-6.636c-1.374 0-2.748 0.934-3.206 2.333l-11.44 28h8.010l1.599-4.432h9.842l0.916 4.432h7.094zM86.73 9.269l2.286 11.432h-6.407l4.121-11.432z"></path>
</symbol>
<symbol id="icon-logo" viewBox="0 0 118 32">
<path d="M15.853 25.712l-1.685-4.737h-9.314l-1.685 4.737h-2.927l7.718-21.122h3.105l7.718 21.122h-2.927zM5.799 18.35h7.422l-3.726-10.41-3.696 10.41z"></path>
<path d="M22.413 19.376c0.256 1.348 0.858 2.394 1.804 3.138 0.966 0.744 2.149 1.116 3.548 1.116 1.952 0 3.371-0.734 4.258-2.203l2.188 1.267c-1.439 2.273-3.608 3.41-6.505 3.41-2.346 0-4.258-0.744-5.736-2.233-1.459-1.509-2.188-3.41-2.188-5.703 0-2.273 0.72-4.164 2.159-5.673s3.302-2.263 5.589-2.263c2.168 0 3.933 0.784 5.293 2.354 1.38 1.549 2.070 3.42 2.070 5.612 0 0.382-0.030 0.774-0.089 1.177h-12.39zM27.529 12.707c-1.38 0-2.523 0.402-3.43 1.207-0.907 0.784-1.469 1.841-1.685 3.168h9.876c-0.217-1.428-0.769-2.514-1.656-3.259s-1.922-1.117-3.105-1.117z"></path>
<path d="M40.421 13.16c0.847-1.871 2.385-2.806 4.613-2.806v2.746c-1.261-0.060-2.346 0.282-3.253 1.026s-1.36 1.941-1.36 3.591v7.996h-2.573v-15.087h2.573v2.535z"></path>
<path d="M59.221 23.811c-1.518 1.529-3.362 2.293-5.53 2.293s-4.012-0.764-5.529-2.293c-1.499-1.529-2.247-3.41-2.247-5.642s0.749-4.114 2.247-5.643c1.517-1.529 3.361-2.293 5.529-2.293s4.011 0.764 5.53 2.293c1.517 1.529 2.277 3.41 2.277 5.643s-0.759 4.114-2.277 5.642zM53.692 23.539c1.478 0 2.72-0.513 3.726-1.539s1.508-2.303 1.508-3.832c0-1.529-0.503-2.806-1.508-3.832s-2.247-1.539-3.726-1.539c-1.459 0-2.691 0.513-3.696 1.539s-1.508 2.303-1.508 3.832 0.503 2.806 1.508 3.832c1.005 1.026 2.237 1.539 3.696 1.539z"></path>
<path d="M76.625 14.759c0.946 0.463 1.696 1.127 2.247 1.991 0.572 0.865 0.858 1.861 0.858 2.987 0 1.69-0.581 3.108-1.745 4.255s-2.583 1.72-4.258 1.72h-8.93v-21.122h8.279c1.616 0 2.987 0.553 4.11 1.66s1.685 2.474 1.685 4.104c0 1.871-0.749 3.339-2.247 4.405zM73.077 7.216h-5.529v6.457h5.529c0.868 0 1.597-0.312 2.188-0.935s0.887-1.388 0.887-2.293c0-0.885-0.306-1.639-0.917-2.263-0.591-0.644-1.311-0.966-2.159-0.966zM73.727 23.087c0.927 0 1.705-0.332 2.336-0.996s0.946-1.479 0.946-2.444c0-0.945-0.325-1.75-0.976-2.414-0.631-0.664-1.4-0.996-2.306-0.996h-6.18v6.849h6.18z"></path>
<path d="M95.051 10.625h2.573v15.087h-2.573v-2.595c-1.281 1.991-3.144 2.987-5.589 2.987-2.070 0-3.834-0.764-5.293-2.293-1.458-1.549-2.188-3.43-2.188-5.642s0.73-4.084 2.188-5.612c1.459-1.549 3.223-2.323 5.293-2.323 2.445 0 4.308 0.996 5.589 2.987v-2.595zM89.788 23.57c1.499 0 2.75-0.513 3.755-1.539 1.005-1.046 1.508-2.333 1.508-3.862s-0.503-2.806-1.508-3.832c-1.005-1.046-2.257-1.569-3.755-1.569-1.478 0-2.72 0.523-3.726 1.569-1.005 1.026-1.508 2.303-1.508 3.832s0.503 2.816 1.508 3.862c1.005 1.026 2.247 1.539 3.726 1.539z"></path>
<path d="M111.842 10.625h2.75l-6.032 16.022c-0.632 1.71-1.518 3.007-2.662 3.892-1.124 0.905-2.425 1.308-3.903 1.207v-2.444c1.814 0.141 3.145-0.885 3.992-3.078l0.266-0.573-6.446-15.027h2.75l5.027 11.828 4.258-11.828z"></path>
<path d="M115.682 26.044c-0.533 0-0.987-0.191-1.361-0.573-0.375-0.382-0.561-0.845-0.561-1.388s0.186-1.006 0.561-1.388c0.374-0.382 0.828-0.573 1.361-0.573 0.551 0 1.005 0.191 1.36 0.573 0.374 0.382 0.561 0.845 0.561 1.388s-0.187 1.006-0.561 1.388c-0.355 0.382-0.809 0.573-1.36 0.573z"></path>
</symbol>
</defs>
</svg>
