<svg aria-hidden="true" version="1.1" xmlns="http://www.w3.org/2000/svg" xmlns:xlink="http://www.w3.org/1999/xlink">
<defs>
<symbol id="icon-applepay" viewBox="0 0 78 32">
<path  d="M14.179 4.11c-0.909 1.077-2.365 1.926-3.82 1.805-0.182-1.456 0.531-3.003 1.364-3.959 0.909-1.107 2.501-1.896 3.79-1.957 0.152 1.517-0.44 3.003-1.334 4.11zM15.498 6.204c-2.107-0.121-3.911 1.198-4.911 1.198-1.016 0-2.547-1.138-4.214-1.107-2.168 0.030-4.184 1.259-5.29 3.216-2.274 3.913-0.591 9.707 1.607 12.892 1.076 1.577 2.365 3.307 4.062 3.246 1.607-0.061 2.243-1.047 4.184-1.047 1.955 0 2.516 1.047 4.214 1.016 1.758-0.030 2.865-1.577 3.941-3.155 1.228-1.79 1.728-3.534 1.758-3.625-0.030-0.030-3.395-1.32-3.426-5.203-0.030-3.246 2.653-4.793 2.774-4.884-1.516-2.245-3.88-2.487-4.699-2.548zM27.67 1.805v23.646h3.668v-8.084h5.078c4.638 0 7.897-3.185 7.897-7.796s-3.198-7.766-7.776-7.766zM31.338 4.899h4.229c3.183 0 5.002 1.699 5.002 4.687s-1.819 4.702-5.017 4.702h-4.214zM51.013 25.633c2.304 0 4.441-1.168 5.411-3.018h0.076v2.836h3.395v-11.77c0-3.413-2.728-5.612-6.927-5.612-3.896 0-6.776 2.23-6.882 5.293h3.304c0.273-1.456 1.622-2.412 3.471-2.412 2.243 0 3.502 1.047 3.502 2.973v1.304l-4.578 0.273c-4.259 0.258-6.563 2.002-6.563 5.036 0 3.064 2.38 5.096 5.79 5.096zM51.998 22.827c-1.955 0-3.198-0.94-3.198-2.381 0-1.486 1.197-2.351 3.486-2.488l4.078-0.258v1.335c0 2.214-1.88 3.792-4.365 3.792zM64.428 31.882c3.577 0 5.26-1.365 6.73-5.506l6.442-18.080h-3.729l-4.32 13.969h-0.076l-4.32-13.969h-3.835l6.215 17.215-0.333 1.047c-0.561 1.775-1.47 2.457-3.092 2.457-0.288 0-0.849-0.030-1.076-0.061v2.836c0.212 0.061 1.122 0.091 1.395 0.091z"></path>
</symbol>
<symbol id="icon-facebook" viewBox="0 0 20 32">
<path fill="none"  stroke-linejoin="round" stroke-linecap="round" stroke-miterlimit="4" stroke-width="2.0089" d="M17.777 1.185h-4.444c-1.965 0-3.849 0.78-5.238 2.17s-2.17 3.273-2.17 5.238v4.444h-4.444v5.926h4.444v11.852h5.926v-11.852h4.444l1.481-5.926h-5.926v-4.444c0-0.393 0.156-0.77 0.434-1.048s0.655-0.434 1.048-0.434h4.444v-5.926z"></path>
</symbol>
<symbol id="icon-globe" viewBox="0 0 34 32">
<path  d="M22.457 15.158l0.951 0.020c0-0.013 0-0.026 0-0.040l-0.951 0.020zM11.229 15.158l-0.951-0.020c-0 0.013-0 0.026 0 0.040l0.951-0.020zM29.926 15.158c0 7.226-5.858 13.084-13.084 13.084v1.903c8.277 0 14.987-6.71 14.987-14.987h-1.903zM16.843 28.241c-7.226 0-13.083-5.858-13.083-13.084h-1.903c0 8.277 6.71 14.987 14.987 14.987v-1.903zM3.759 15.158c0-7.226 5.858-13.084 13.083-13.084v-1.903c-8.277 0-14.987 6.71-14.987 14.987h1.903zM16.843 2.074c7.226 0 13.084 5.858 13.084 13.084h1.903c0-8.277-6.71-14.987-14.987-14.987v1.903zM2.808 16.109h28.070v-1.903h-28.070v1.903zM16.14 1.764c3.355 3.673 5.262 8.44 5.365 13.413l1.903-0.040c-0.113-5.435-2.197-10.643-5.863-14.657l-1.405 1.284zM21.505 15.138c-0.104 4.974-2.010 9.74-5.365 13.413l1.405 1.284c3.666-4.014 5.75-9.222 5.863-14.657l-1.903-0.040zM17.545 28.551c-3.355-3.673-5.262-8.44-5.365-13.413l-1.903 0.040c0.113 5.435 2.197 10.643 5.863 14.657l1.405-1.284zM12.18 15.177c0.104-4.974 2.010-9.74 5.365-13.413l-1.405-1.284c-3.666 4.014-5.75 9.222-5.863 14.657l1.903 0.040z"></path>
</symbol>
<symbol id="icon-instagram" viewBox="0 0 32 32">
<path  stroke="none" d="M21.927 15.066v0zM16.934 10.074v0zM24.149 6.847c-0.555 0-1.004 0.45-1.004 1.004s0.45 1.004 1.004 1.004v-2.009zM24.164 8.856c0.555 0 1.004-0.45 1.004-1.004s-0.45-1.004-1.004-1.004v2.009zM8.593 2.189h14.815v-2.009h-14.815v2.009zM23.408 2.189c3.536 0 6.403 2.867 6.403 6.403h2.009c0-4.646-3.766-8.412-8.412-8.412v2.009zM29.811 8.592v14.815h2.009v-14.815h-2.009zM29.811 23.407c0 3.536-2.867 6.403-6.403 6.403v2.009c4.646 0 8.412-3.766 8.412-8.412h-2.009zM23.408 29.81h-14.815v2.009h14.815v-2.009zM8.593 29.81c-3.536 0-6.403-2.867-6.403-6.403h-2.009c0 4.646 3.766 8.412 8.412 8.412v-2.009zM2.19 23.407v-14.815h-2.009v14.815h2.009zM2.19 8.592c0-3.536 2.867-6.403 6.403-6.403v-2.009c-4.646 0-8.412 3.766-8.412 8.412h2.009zM20.933 15.214c0.152 1.024-0.023 2.070-0.5 2.989l1.783 0.925c0.671-1.294 0.918-2.767 0.704-4.208l-1.987 0.295zM20.433 18.202c-0.477 0.919-1.231 1.664-2.156 2.129l0.903 1.794c1.302-0.655 2.364-1.705 3.036-2.999l-1.783-0.925zM18.277 20.332c-0.925 0.465-1.973 0.627-2.995 0.463l-0.319 1.983c1.439 0.232 2.915 0.004 4.217-0.652l-0.903-1.794zM15.283 20.795c-1.022-0.164-1.966-0.647-2.698-1.379l-1.421 1.42c1.031 1.031 2.36 1.71 3.8 1.942l0.319-1.983zM12.585 19.416c-0.732-0.732-1.214-1.676-1.379-2.698l-1.983 0.319c0.232 1.439 0.911 2.769 1.942 3.799l1.421-1.42zM11.206 16.718c-0.164-1.022-0.002-2.070 0.463-2.995l-1.794-0.903c-0.655 1.302-0.883 2.778-0.652 4.217l1.983-0.319zM11.669 13.723c0.465-0.925 1.21-1.679 2.129-2.156l-0.925-1.783c-1.294 0.671-2.343 1.734-2.999 3.036l1.794 0.903zM13.798 11.567c0.919-0.477 1.965-0.652 2.989-0.5l0.295-1.987c-1.442-0.214-2.915 0.032-4.209 0.704l0.925 1.783zM16.787 11.067c1.045 0.155 2.011 0.642 2.758 1.388l1.42-1.421c-1.051-1.051-2.413-1.737-3.884-1.955l-0.295 1.987zM19.545 12.456c0.747 0.747 1.233 1.714 1.388 2.758l1.987-0.295c-0.218-1.471-0.903-2.833-1.955-3.884l-1.42 1.421zM24.149 8.856h0.015v-2.009h-0.015v2.009z"></path>
</symbol>
<symbol id="icon-mastercard" viewBox="0 0 53 32">
<path fill="#98a2b3"  d="M25.552 27.038c-2.706 2.281-6.217 3.659-10.053 3.659-8.56 0-15.499-6.856-15.499-15.314s6.939-15.314 15.499-15.314c3.836 0 7.347 1.377 10.053 3.658 2.706-2.281 6.217-3.658 10.053-3.658 8.56 0 15.499 6.856 15.499 15.314s-6.939 15.314-15.499 15.314c-3.836 0-7.347-1.377-10.053-3.659z"></path>
<path fill="#98a2b3"  d="M25.551 27.038c3.332-2.809 5.445-6.988 5.445-11.656s-2.113-8.847-5.445-11.656c2.706-2.281 6.217-3.658 10.053-3.658 8.56 0 15.499 6.856 15.499 15.314s-6.939 15.314-15.499 15.314c-3.836 0-7.347-1.377-10.053-3.659z"></path>
<path fill="#fff" d="M25.553 27.038c3.332-2.809 5.445-6.988 5.445-11.656s-2.113-8.847-5.445-11.656c-3.332 2.809-5.446 6.989-5.446 11.656s2.113 8.847 5.446 11.656z"></path>
</symbol>
<symbol id="icon-point" viewBox="0 0 32 32">
<path d="M15.945 31.173c-4.149 0-7.685-1.481-10.602-4.443-2.924-2.962-4.379-6.548-4.379-10.757s1.456-7.795 4.379-10.757c2.917-2.962 6.454-4.443 10.602-4.443 4.3 0 7.837 1.481 10.602 4.443 2.918 2.962 4.379 6.548 4.379 10.757s-1.462 7.795-4.379 10.757c-2.766 2.962-6.302 4.443-10.602 4.443z"></path>
</symbol>
<symbol id="icon-visa" viewBox="0 0 100 32">
<path fill="#98a2b3"  d="M27 31.433h-8.239l-6.178-24.263c-0.293-1.116-0.916-2.103-1.832-2.568-2.286-1.169-4.804-2.099-7.552-2.568v-0.934h13.272c1.832 0 3.206 1.403 3.435 3.033l3.206 17.502 8.235-20.535h8.010l-12.356 30.333zM43.936 31.433h-7.781l6.407-30.333h7.781l-6.407 30.333zM60.41 9.503c0.229-1.634 1.603-2.568 3.206-2.568 2.519-0.235 5.262 0.235 7.552 1.399l1.374-6.531c-2.29-0.934-4.808-1.403-7.094-1.403-7.552 0-13.048 4.202-13.048 10.033 0 4.436 3.892 6.765 6.64 8.169 2.972 1.399 4.117 2.333 3.888 3.733 0 2.099-2.29 3.033-4.576 3.033-2.748 0-5.495-0.7-8.010-1.868l-1.374 6.535c2.748 1.165 5.72 1.634 8.468 1.634 8.468 0.23 13.73-3.967 13.73-10.268 0-7.934-10.758-8.399-10.758-11.897zM98.399 31.433l-6.178-30.333h-6.636c-1.374 0-2.748 0.934-3.206 2.333l-11.44 28h8.010l1.599-4.432h9.842l0.916 4.432h7.094zM86.73 9.269l2.286 11.432h-6.407l4.121-11.432z"></path>
</symbol>
<symbol id="icon-logo" viewBox="0 0 118 32">
<path d="M15.853 25.712l-1.685-4.737h-9.314l-1.685 4.737h-2.927l7.718-21.122h3.105l7.718 21.122h-2.927zM5.799 18.35h7.422l-3.726-10.41-3.696 10.41z"></path>
<path d="M22.413 19.376c0.256 1.348 0.858 2.394 1.804 3.138 0.966 0.744 2.149 1.116 3.548 1.116 1.952 0 3.371-0.734 4.258-2.203l2.188 1.267c-1.439 2.273-3.608 3.41-6.505 3.41-2.346 0-4.258-0.744-5.736-2.233-1.459-1.509-2.188-3.41-2.188-5.703 0-2.273 0.72-4.164 2.159-5.673s3.302-2.263 5.589-2.263c2.168 0 3.933 0.784 5.293 2.354 1.38 1.549 2.070 3.42 2.070 5.612 0 0.382-0.030 0.774-0.089 1.177h-12.39zM27.529 12.707c-1.38 0-2.523 0.402-3.43 1.207-0.907 0.784-1.469 1.841-1.685 3.168h9.876c-0.217-1.428-0.769-2.514-1.656-3.259s-1.922-1.117-3.105-1.117z"></path>
<path d="M40.421 13.16c0.847-1.871 2.385-2.806 4.613-2.806v2.746c-1.261-0.060-2.346 0.282-3.253 1.026s-1.36 1.941-1.36 3.591v7.996h-2.573v-15.087h2.573v2.535z"></path>
<path d="M59.221 23.811c-1.518 1.529-3.362 2.293-5.53 2.293s-4.012-0.764-5.529-2.293c-1.499-1.529-2.247-3.41-2.247-5.642s0.749-4.114 2.247-5.643c1.517-1.529 3.361-2.293 5.529-2.293s4.011 0.764 5.53 2.293c1.517 1.529 2.277 3.41 2.277 5.643s-0.759 4.114-2.277 5.642zM53.692 23.539c1.478 0 2.72-0.513 3.726-1.539s1.508-2.303 1.508-3.832c0-1.529-0.503-2.806-1.508-3.832s-2.247-1.539-3.726-1.539c-1.459 0-2.691 0.513-3.696 1.539s-1.508 2.303-1.508 3.832 0.503 2.806 1.508 3.832c1.005 1.026 2.237 1.539 3.696 1.539z"></path>
<path d="M76.625 14.759c0.946 0.463 1.696 1.127 2.247 1.991 0.572 0.865 0.858 1.861 0.858 2.987 0 1.69-0.581 3.108-1.745 4.255s-2.583 1.72-4.258 1.72h-8.93v-21.122h8.279c1.616 0 2.987 0.553 4.11 1.66s1.685 2.474 1.685 4.104c0 1.871-0.749 3.339-2.247 4.405zM73.077 7.216h-5.529v6.457h5.529c0.868 0 1.597-0.312 2.188-0.935s0.887-1.388 0.887-2.293c0-0.885-0.306-1.639-0.917-2.263-0.591-0.644-1.311-0.966-2.159-0.966zM73.727 23.087c0.927 0 1.705-0.332 2.336-0.996s0.946-1.479 0.946-2.444c0-0.945-0.325-1.75-0.976-2.414-0.631-0.664-1.4-0.996-2.306-0.996h-6.18v6.849h6.18z"></path>
<path d="M95.051 10.625h2.573v15.087h-2.573v-2.595c-1.281 1.991-3.144 2.987-5.589 2.987-2.070 0-3.834-0.764-5.293-2.293-1.458-1.549-2.188-3.43-2.188-5.642s0.73-4.084 2.188-5.612c1.459-1.549 3.223-2.323 5.293-2.323 2.445 0 4.308 0.996 5.589 2.987v-2.595zM89.788 23.57c1.499 0 2.75-0.513 3.755-1.539 1.005-1.046 1.508-2.333 1.508-3.862s-0.503-2.806-1.508-3.832c-1.005-1.046-2.257-1.569-3.755-1.569-1.478 0-2.72 0.523-3.726 1.569-1.005 1.026-1.508 2.303-1.508 3.832s0.503 2.816 1.508 3.862c1.005 1.026 2.247 1.539 3.726 1.539z"></path>
<path d="M111.842 10.625h2.75l-6.032 16.022c-0.632 1.71-1.518 3.007-2.662 3.892-1.124 0.905-2.425 1.308-3.903 1.207v-2.444c1.814 0.141 3.145-0.885 3.992-3.078l0.266-0.573-6.446-15.027h2.75l5.027 11.828 4.258-11.828z"></path>
<path d="M115.682 26.044c-0.533 0-0.987-0.191-1.361-0.573-0.375-0.382-0.561-0.845-0.561-1.388s0.186-1.006 0.561-1.388c0.374-0.382 0.828-0.573 1.361-0.573 0.551 0 1.005 0.191 1.36 0.573 0.374 0.382 0.561 0.845 0.561 1.388s-0.187 1.006-0.561 1.388c-0.355 0.382-0.809 0.573-1.36 0.573z"></path>
</symbol>
<symbol id="icon-scheme" viewBox="0 0 34 32">
<path fill="#757575"  d="M19.353 0h-4.572c-0.63 0-1.143 0.513-1.143 1.143v4.572c0 0.63 0.513 1.143 1.143 1.143h4.572c0.63 0 1.143-0.513 1.143-1.143v-4.572c0-0.63-0.513-1.143-1.143-1.143zM14.781 5.715v-4.572h4.572l0.001 4.572h-4.573zM29.639 12.572c-1.89 0-3.429 1.537-3.429 3.429 0.161 4.538 6.697 4.536 6.857 0 0-1.89-1.536-3.429-3.428-3.429zM29.639 18.287c-3.020-0.096-3.020-4.476 0-4.572 3.020 0.096 3.020 4.476 0 4.572zM4.496 19.783c0.197 0 0.396-0.051 0.572-0.153l2.286-1.319c0.353-0.204 0.572-0.583 0.572-0.99v-2.639c0-0.407-0.219-0.786-0.572-0.99l-2.286-1.319c-0.353-0.203-0.79-0.203-1.143 0l-2.286 1.319c-0.353 0.204-0.571 0.583-0.571 0.99v2.639c0 0.407 0.219 0.786 0.571 0.99l2.286 1.319c0.176 0.101 0.374 0.153 0.572 0.153zM2.21 14.681l2.286-1.319 2.286 1.319v2.639l-2.286 1.319-2.286-1.319v-2.639zM17.067 25.143c-0.413 0-0.783 0.213-0.99 0.572l-2.637 4.571c-0.207 0.359-0.207 0.786-0.001 1.143 0.207 0.359 0.577 0.572 0.99 0.572h5.278c0.413 0 0.783-0.214 0.99-0.572s0.206-0.786 0-1.143l-2.639-4.572c-0.207-0.357-0.577-0.57-0.99-0.57zM19.706 30.858h-5.278l2.639-4.571c0 0 2.639 4.569 2.639 4.571zM7.925 2.857h2.049l-0.167-0.167c-0.526-0.531 0.277-1.333 0.809-0.809 0.087 0.109 1.269 1.21 1.266 1.329 0.089 0.209 0.037 0.464-0.124 0.623l-1.142 1.142c-0.223 0.223-0.584 0.223-0.809 0-0.314-0.326-0.149-0.726 0.167-0.976h-2.049c-1.576 0-2.858 1.282-2.858 2.858v3.075c-0.014 0.753-1.129 0.749-1.143 0v-3.075c0-2.206 1.794-3.999 4.001-3.999zM26.21 29.144h-2.489c0.313 0.246 0.482 0.653 0.167 0.976-0.223 0.223-0.584 0.223-0.809 0l-1.142-1.142c-0.221-0.211-0.221-0.597 0-0.81l1.142-1.142c0.53-0.526 1.335 0.277 0.809 0.809l-0.167 0.167h2.489c1.576 0 2.858-1.282 2.858-2.858v-3.429c0-0.316 0.256-0.571 0.572-0.571s0.572 0.256 0.572 0.571v3.429c0 2.206-1.794 3.999-4.001 3.999zM3.924 25.143v-1.695l-0.167 0.167c-0.531 0.526-1.333-0.277-0.809-0.809l1.142-1.142c0.213-0.221 0.597-0.221 0.81 0l1.142 1.142c0.526 0.53-0.277 1.335-0.809 0.809l-0.167-0.167v1.695c0 1.576 1.282 2.857 2.857 2.857h3.868c0.316 0 0.572 0.256 0.572 0.572s-0.256 0.572-0.572 0.572h-3.868c-2.206 0-3.999-1.794-3.999-4zM30.21 6.858v2.049l0.167-0.167c0.531-0.526 1.333 0.277 0.809 0.809l-1.142 1.142c-0.213 0.221-0.597 0.221-0.81 0l-1.142-1.142c-0.526-0.53 0.277-1.334 0.809-0.809l0.167 0.167v-2.049c0-1.576-1.282-2.858-2.858-2.858h-3.429c-0.316 0-0.572-0.256-0.572-0.571s0.256-0.572 0.572-0.572h3.429c2.206 0 3.999 1.794 3.999 4.001zM20.3 10.344l-0.169 0.169c-0.429-0.24-0.88-0.429-1.349-0.562 0.087-0.703-0.403-1.387-1.143-1.38h-1.143c-0.739-0.004-1.23 0.674-1.143 1.38-0.47 0.133-0.922 0.32-1.349 0.562-0.436-0.56-1.267-0.697-1.785-0.169l-0.809 0.809c-0.527 0.52-0.393 1.349 0.169 1.785-0.24 0.429-0.429 0.88-0.562 1.349h-0.237c-0.63 0-1.143 0.513-1.143 1.143v1.143c-0.004 0.739 0.674 1.23 1.38 1.143 0.133 0.47 0.32 0.922 0.562 1.349l-0.169 0.169c-0.446 0.446-0.446 1.17 0 1.616l0.809 0.809c0.446 0.446 1.17 0.446 1.616 0l0.169-0.169c0.429 0.24 0.88 0.429 1.349 0.561-0.087 0.703 0.403 1.387 1.143 1.38h1.143c0.739 0.004 1.23-0.675 1.143-1.38 0.47-0.133 0.922-0.32 1.349-0.561 0.436 0.56 1.267 0.697 1.784 0.169l0.809-0.809c0.527-0.52 0.393-1.349-0.169-1.785 0.24-0.429 0.429-0.88 0.561-1.349 0.703 0.087 1.387-0.403 1.38-1.143v-1.143c0.004-0.739-0.674-1.23-1.38-1.143-0.133-0.47-0.32-0.922-0.561-1.349 0.56-0.436 0.699-1.267 0.169-1.785l-0.809-0.809c-0.446-0.446-1.17-0.446-1.616-0zM22.711 15.429h0.643v1.143c-0.449 0.019-1.122-0.141-1.246 0.454-0.13 0.649-0.386 1.26-0.756 1.817-0.163 0.244-0.109 0.569 0.119 0.754 0.007 0.006 0.013 0.010 0.020 0.016l0.427 0.427-0.809 0.809-0.403-0.403c-0.011-0.017-0.023-0.033-0.036-0.049-0.186-0.227-0.513-0.277-0.759-0.114-0.557 0.371-1.169 0.626-1.817 0.756-0.596 0.119-0.437 0.809-0.454 1.246h-1.143c0-0.006-0.001-0.624 0-0.628 0.029-0.293-0.169-0.559-0.456-0.617-0.649-0.13-1.26-0.384-1.817-0.756-0.251-0.169-0.59-0.103-0.77 0.139l-0.427 0.427-0.809-0.809 0.403-0.403c0.017-0.011 0.033-0.023 0.049-0.036 0.227-0.186 0.276-0.514 0.114-0.759-0.371-0.557-0.626-1.169-0.756-1.817-0.131-0.6-0.806-0.434-1.246-0.454v-1.143h0.624c0.3 0.031 0.563-0.166 0.621-0.454 0.13-0.649 0.384-1.26 0.756-1.817 0.333-0.526-0.264-0.859-0.566-1.197l0.809-0.809 0.403 0.403c0.011 0.017 0.023 0.033 0.036 0.049 0.186 0.227 0.513 0.276 0.759 0.114 0.557-0.371 1.169-0.626 1.817-0.756 0.283-0.057 0.477-0.317 0.454-0.604v-0.643h1.143c0.021 0.454-0.149 1.116 0.454 1.246 0.649 0.13 1.26 0.386 1.817 0.756 0.244 0.163 0.569 0.109 0.754-0.119 0.006-0.007 0.010-0.013 0.016-0.020l0.427-0.427 0.809 0.809-0.403 0.403c-0.017 0.011-0.033 0.023-0.049 0.036-0.227 0.186-0.276 0.514-0.114 0.759 0.372 0.557 0.626 1.169 0.756 1.817 0.057 0.283 0.33 0.476 0.604 0.456zM21.068 16c-0.201 5.298-7.798 5.299-8 0-0.053-2.729 2.862-4.751 5.394-3.745 0.697 0.281 0.294 1.323-0.41 1.067-1.805-0.713-3.879 0.734-3.841 2.678 0.134 3.781 5.581 3.781 5.714 0 0.090-0.59-0.597-1.387 0.15-1.722 0.92-0.244 0.956 1.096 0.993 1.722z"></path>
</symbol>
<symbol id="icon-geo-exploration" viewBox="0 0 32 32">
<path fill="#757575" style="fill: var(--color1, #757575)" d="M16 0.009v0.524l-0.068-0.528c-0.050-0.003-0.1-0.003-0.151-0.005-8.696 0.11-15.774 7.285-15.781 15.996-0.003 4.278 1.67 8.3 4.711 11.325 3.028 3.012 7.037 4.671 11.339 4.674 0.013 0.001 0.114 0.005 0.13 0.005h0.001c8.684-0.098 15.78-7.261 15.819-15.971 0.003-8.826-7.174-16.013-16-16.021zM9.198 2.726c0.455 0.729 0.875 1.518 1.060 2.402 0.025 0.121 0.046 0.243 0.060 0.372 0.004 0.037 0.001 0.076 0 0.114 0 0.009-0.002 0.105-0.002 0.115 0.014 0.688-0.28 1.161-0.928 1.491-0.098 0.050-0.203 0.089-0.307 0.129-0.146 0.056-0.29 0.112-0.427 0.184l-0.192 0.098c-0.316 0.161-0.643 0.328-0.94 0.565-0.761 0.611-0.951 1.652-0.461 2.53 0.434 0.776 1.039 1.237 1.797 1.369 0.439 0.077 0.887-0.001 1.365-0.238 0.238-0.118 0.473-0.246 0.708-0.375l0.338-0.184c0.201-0.106 0.443-0.119 0.669-0.037 0.226 0.084 0.403 0.253 0.485 0.466 0.041 0.104-0.012 0.225-0.176 0.539-0.103 0.197-0.216 0.39-0.33 0.582-0.091 0.154-0.181 0.309-0.268 0.465-0.59 1.073-0.665 2.084-0.229 3.089 0.123 0.283 0.135 0.619 0.040 1.125-0.222 1.17-0.713 2.105-1.5 2.856-0.144 0.138-0.325 0.259-0.508 0.34-0.086 0.038-0.146 0.052-0.16 0.070-0.008-0.031-0.016-0.086-0.013-0.17 0.009-0.283 0.041-0.566 0.073-0.849 0.028-0.248 0.055-0.497 0.071-0.746 0.027-0.439 0.047-0.87-0.002-1.305-0.098-0.856-0.565-1.569-1.429-2.182l-0.832-0.575c-0.245-0.171-0.327-0.373-0.282-0.699 0.040-0.294 0.054-0.594 0.053-0.892-0.009-1.706-0.889-2.803-2.544-3.173-0.802-0.18-1.26-0.64-1.45-1.424 1.439-2.581 3.623-4.691 6.261-6.053zM16.118 30.948c-0.011-0.001-0.107-0.005-0.118-0.005-3.973-0.001-7.719-1.551-10.549-4.366-2.841-2.826-4.405-6.584-4.402-10.58 0.001-2.136 0.468-4.168 1.289-6.013 0.401 0.623 1.002 1.059 1.82 1.242 1.17 0.262 1.717 0.947 1.724 2.155 0.001 0.248-0.009 0.499-0.043 0.744-0.1 0.717 0.149 1.307 0.722 1.705l0.825 0.57c0.613 0.435 0.929 0.894 0.992 1.443 0.040 0.352 0.021 0.732-0.002 1.124-0.014 0.231-0.040 0.462-0.066 0.693-0.035 0.309-0.069 0.619-0.080 0.93-0.021 0.654 0.279 0.955 0.459 1.077 0.11 0.074 0.298 0.163 0.563 0.163 0.175 0 0.383-0.039 0.626-0.146 0.293-0.131 0.572-0.316 0.807-0.539 0.938-0.896 1.545-2.046 1.806-3.42 0.091-0.484 0.161-1.119-0.108-1.738-0.304-0.697-0.245-1.385 0.185-2.165 0.081-0.148 0.167-0.293 0.252-0.439 0.123-0.208 0.245-0.416 0.389-0.692 0.163-0.313 0.41-0.784 0.19-1.345-0.192-0.491-0.593-0.881-1.1-1.068s-1.063-0.151-1.527 0.096l-0.348 0.189c-0.221 0.122-0.443 0.243-0.669 0.354-0.275 0.136-0.503 0.181-0.719 0.145-0.444-0.077-0.782-0.347-1.061-0.847-0.243-0.435-0.164-0.906 0.203-1.201 0.211-0.17 0.478-0.306 0.759-0.448l0.201-0.103c0.101-0.053 0.209-0.093 0.316-0.134 0.139-0.053 0.279-0.108 0.409-0.174 1.005-0.511 1.525-1.358 1.502-2.508 0.003-0.091 0.004-0.183-0.006-0.266-0.018-0.156-0.043-0.311-0.076-0.466-0.209-0.999-0.653-1.861-1.139-2.648 1.759-0.756 3.691-1.188 5.721-1.212 0.011 0.001 0.12 0.005 0.133 0.005 8.247 0.007 14.954 6.723 14.951 14.969-0.035 8.138-6.667 14.832-14.832 14.921z"></path>
<path fill="#757575" style="fill: var(--color1, #757575)" d="M17.398 2.551c-0.676-0.109-1.38 0.071-1.92 0.494-0.539 0.421-0.867 1.027-0.926 1.708l-0.013 0.146c-0.171 1.97-0.293 3.948-0.372 5.93-0.001 0.004 0 0.007 0 0.010-0.138 3.44-0.138 6.891 0 10.332 0.001 0.004 0 0.008 0.001 0.011 0.079 1.98 0.201 3.958 0.372 5.928l0.012 0.139c0.059 0.684 0.391 1.293 0.933 1.717 0.435 0.34 0.974 0.522 1.521 0.522 0.129 0 0.259-0.010 0.388-0.030 6.618-1.058 11.442-6.706 11.472-13.433 0.001-6.641-4.928-12.433-11.467-13.473zM15.135 14.746c0.282-0.213 0.618-0.334 0.97-0.334 0.882 0 1.599 0.713 1.599 1.588 0 0.882-0.718 1.599-1.599 1.599-0.355 0-0.691-0.124-0.97-0.341-0.008-0.838-0.008-1.674 0-2.512zM15.161 18.468c0.299 0.115 0.616 0.18 0.944 0.18 1.46 0 2.648-1.188 2.648-2.649 0-1.454-1.189-2.637-2.648-2.637-0.327 0-0.645 0.064-0.944 0.179 0.014-0.738 0.021-1.477 0.048-2.214 0.297-0.057 0.596-0.096 0.896-0.096 2.636 0 4.78 2.139 4.78 4.768 0 2.636-2.145 4.78-4.78 4.78-0.3 0-0.599-0.039-0.896-0.096-0.028-0.739-0.034-1.478-0.048-2.217zM15.242 21.76c0.287 0.043 0.575 0.069 0.863 0.069 3.214 0 5.83-2.614 5.83-5.829 0-3.208-2.616-5.818-5.83-5.818-0.289 0-0.577 0.026-0.863 0.069 0.034-0.75 0.098-1.496 0.146-2.244 0.237-0.025 0.47-0.059 0.717-0.059 4.439 0 8.051 3.612 8.051 8.051 0 4.446-3.611 8.062-8.051 8.062-0.247 0-0.48-0.035-0.717-0.060-0.047-0.746-0.112-1.493-0.146-2.242zM17.228 28.422c-0.396 0.063-0.786-0.038-1.098-0.282-0.311-0.242-0.5-0.59-0.534-0.982l-0.012-0.139c-0.057-0.652-0.081-1.308-0.127-1.961 0.217 0.018 0.427 0.054 0.649 0.054 5.018 0 9.1-4.088 9.1-9.112 0-5.018-4.082-9.1-9.1-9.1-0.223 0-0.432 0.036-0.649 0.054 0.047-0.653 0.071-1.309 0.127-1.961l0.013-0.146c0-0.001 0-0.002 0-0.003 0.034-0.387 0.22-0.732 0.528-0.972 0.251-0.197 0.563-0.302 0.882-0.302 0.076 0 0.151 0.006 0.227 0.018 6.034 0.961 10.583 6.307 10.581 12.436-0.027 6.208-4.48 11.423-10.588 12.399z"></path>
</symbol>
<symbol id="icon-arrow-up-right" viewBox="0 0 32 32">
<path d="M8.484 21.818c-0.469 0.468-0.469 1.228 0 1.697s1.228 0.469 1.697 0l-1.697-1.697zM22.666 9.333h1.2c0-0.663-0.537-1.2-1.2-1.2v1.2zM9.333 8.133c-0.663 0-1.2 0.537-1.2 1.2s0.537 1.2 1.2 1.2v-2.4zM21.466 22.667c0 0.663 0.537 1.2 1.2 1.2s1.2-0.537 1.2-1.2h-2.4zM10.181 23.515l13.333-13.333-1.697-1.697-13.333 13.333 1.697 1.697zM9.333 10.533h13.333v-2.4h-13.333v2.4zM21.466 9.333v13.333h2.4v-13.333h-2.4z"></path>
</symbol>
<symbol id="icon-business" viewBox="0 0 32 32">
<path fill="none" stroke="#667085"  stroke-linejoin="round" stroke-linecap="round" stroke-miterlimit="4" stroke-width="1.8080" d="M14.666 8c0 1.061 0.702 2.078 1.953 2.828s2.946 1.172 4.714 1.172c1.768 0 3.464-0.421 4.714-1.172s1.953-1.768 1.953-2.828-0.702-2.078-1.953-2.828c-1.25-0.75-2.946-1.172-4.714-1.172s-3.464 0.421-4.714 1.172-1.953 1.768-1.953 2.828z"></path>
<path fill="none" stroke="#667085"  stroke-linejoin="round" stroke-linecap="round" stroke-miterlimit="4" stroke-width="1.8080" d="M14.666 8v5.333c0 2.209 2.985 4 6.667 4s6.667-1.791 6.667-4v-5.333"></path>
<path fill="none" stroke="#667085"  stroke-linejoin="round" stroke-linecap="round" stroke-miterlimit="4" stroke-width="1.8080" d="M14.666 13.333v5.333c0 2.209 2.985 4 6.667 4s6.667-1.791 6.667-4v-5.333"></path>
<path fill="none" stroke="#667085"  stroke-linejoin="round" stroke-linecap="round" stroke-miterlimit="4" stroke-width="1.8080" d="M14.666 18.667v5.333c0 2.209 2.985 4 6.667 4s6.667-1.791 6.667-4v-5.333"></path>
<path fill="none" stroke="#667085"  stroke-linejoin="round" stroke-linecap="round" stroke-miterlimit="4" stroke-width="1.8080" d="M9.333 12h-3.333c-0.53 0-1.039 0.211-1.414 0.586s-0.586 0.884-0.586 1.414c0 0.53 0.211 1.039 0.586 1.414s0.884 0.586 1.414 0.586h1.333c0.53 0 1.039 0.211 1.414 0.586s0.586 0.884 0.586 1.414c0 0.53-0.211 1.039-0.586 1.414s-0.884 0.586-1.414 0.586h-3.333"></path>
<path fill="none" stroke="#667085"  stroke-linejoin="round" stroke-linecap="round" stroke-miterlimit="4" stroke-width="1.8080" d="M6.666 20v1.333M6.666 10.667v1.333"></path>
</symbol>
<symbol id="icon-camera" viewBox="0 0 32 32">
<path fill="#667085"  d="M1.334 25.333v0zM4 8v0zM9.334 8v0.904c0.302 0 0.585-0.151 0.752-0.403l-0.752-0.501zM12 4v-0.904c-0.302 0-0.585 0.151-0.752 0.403l0.752 0.501zM20 4l0.752-0.501c-0.168-0.252-0.45-0.403-0.752-0.403v0.904zM22.667 8l-0.752 0.501c0.168 0.252 0.45 0.403 0.752 0.403v-0.904zM28 8v0zM29.763 25.333c0 0.468-0.186 0.916-0.516 1.246l1.278 1.279c0.67-0.67 1.046-1.578 1.046-2.525h-1.808zM29.247 26.58c-0.331 0.331-0.779 0.516-1.246 0.516v1.808c0.947 0 1.855-0.376 2.525-1.046l-1.278-1.279zM28 27.096h-24v1.808h24v-1.808zM4 27.096c-0.468 0-0.916-0.186-1.246-0.516l-1.278 1.279c0.67 0.67 1.578 1.046 2.525 1.046v-1.808zM2.754 26.58c-0.331-0.331-0.516-0.779-0.516-1.246h-1.808c0 0.947 0.376 1.855 1.046 2.525l1.278-1.279zM2.238 25.333v-14.667h-1.808v14.667h1.808zM2.238 10.667c0-0.467 0.186-0.916 0.516-1.246l-1.278-1.278c-0.67 0.67-1.046 1.578-1.046 2.525h1.808zM2.754 9.42c0.331-0.331 0.779-0.516 1.246-0.516v-1.808c-0.947 0-1.855 0.376-2.525 1.046l1.278 1.278zM4 8.904h5.333v-1.808h-5.333v1.808zM10.086 8.501l2.667-4-1.504-1.003-2.667 4 1.504 1.003zM12 4.904h8v-1.808h-8v1.808zM19.248 4.501l2.667 4 1.504-1.003-2.667-4-1.504 1.003zM22.667 8.904h5.333v-1.808h-5.333v1.808zM28 8.904c0.467 0 0.916 0.186 1.246 0.516l1.278-1.278c-0.67-0.67-1.578-1.046-2.525-1.046v1.808zM29.247 9.42c0.331 0.331 0.516 0.779 0.516 1.246h1.808c0-0.947-0.376-1.855-1.046-2.525l-1.278 1.278zM29.763 10.667v14.667h1.808v-14.667h-1.808zM20.43 17.333c0 2.446-1.983 4.429-4.429 4.429v1.808c3.445 0 6.237-2.793 6.237-6.237h-1.808zM16 21.763c-2.446 0-4.429-1.983-4.429-4.429h-1.808c0 3.445 2.793 6.237 6.237 6.237v-1.808zM11.571 17.333c0-2.446 1.983-4.429 4.429-4.429v-1.808c-3.445 0-6.237 2.793-6.237 6.237h1.808zM16 12.904c2.446 0 4.429 1.983 4.429 4.429h1.808c0-3.445-2.792-6.237-6.237-6.237v1.808z"></path>
</symbol>
<symbol id="icon-package" viewBox="0 0 32 32">
<path fill="#667085"  d="M21.548 13.317c0.432 0.249 0.985 0.101 1.235-0.332s0.101-0.985-0.332-1.235l-0.903 1.566zM10.452 4.83c-0.432-0.249-0.985-0.101-1.235 0.332s-0.101 0.985 0.332 1.235l0.903-1.566zM28 21.333l0.904 0.001v-0.001h-0.904zM28 10.667h0.904v-0.001l-0.904 0.001zM26.667 8.36l0.452-0.783-0.004-0.002-0.448 0.785zM17.333 3.027l-0.452 0.783 0.004 0.002 0.448-0.785zM14.667 3.027l0.448 0.785 0.004-0.002-0.452-0.783zM5.333 8.36l-0.449-0.785-0.003 0.002 0.452 0.783zM4 10.667l-0.904-0.001v0.001h0.904zM4 21.333h-0.904v0.001l0.904-0.001zM5.333 23.64l-0.452 0.783 0.003 0.002 0.449-0.785zM14.667 28.973l0.452-0.783-0.004-0.002-0.448 0.785zM17.333 28.973l-0.448-0.785-0.004 0.002 0.452 0.783zM26.667 23.64l0.448 0.785 0.004-0.002-0.452-0.783zM4.813 8.498c-0.432-0.25-0.985-0.102-1.235 0.33s-0.102 0.985 0.33 1.235l0.905-1.565zM16 16.013l-0.453 0.783c0.28 0.162 0.625 0.162 0.905 0l-0.453-0.783zM28.093 10.063c0.432-0.25 0.58-0.803 0.33-1.235s-0.803-0.58-1.235-0.33l0.905 1.565zM15.096 29.44c0 0.499 0.405 0.904 0.904 0.904s0.904-0.405 0.904-0.904h-1.808zM16.904 16c0-0.499-0.405-0.904-0.904-0.904s-0.904 0.405-0.904 0.904h1.808zM22.452 11.75l-12-6.92-0.903 1.566 12 6.92 0.903-1.566zM28.904 21.333v-10.667h-1.808v10.667h1.808zM28.904 10.666c-0.001-0.626-0.166-1.241-0.479-1.783l-1.565 0.905c0.155 0.268 0.236 0.571 0.237 0.88l1.808-0.002zM28.425 8.883c-0.313-0.542-0.764-0.992-1.306-1.305l-0.904 1.566c0.268 0.155 0.49 0.377 0.645 0.644l1.565-0.905zM27.115 7.575l-9.333-5.333-0.897 1.57 9.333 5.333 0.897-1.57zM17.785 2.244c-0.543-0.313-1.159-0.478-1.785-0.478v1.808c0.309 0 0.613 0.081 0.881 0.236l0.904-1.566zM16 1.766c-0.627 0-1.243 0.165-1.785 0.478l0.904 1.566c0.268-0.155 0.572-0.236 0.881-0.236v-1.808zM14.218 2.242l-9.333 5.333 0.897 1.57 9.333-5.333-0.897-1.57zM4.881 7.577c-0.542 0.313-0.993 0.763-1.306 1.305l1.565 0.905c0.155-0.268 0.377-0.49 0.645-0.644l-0.904-1.566zM3.575 8.883c-0.313 0.542-0.479 1.157-0.479 1.783l1.808 0.002c0-0.309 0.082-0.613 0.237-0.88l-1.565-0.905zM3.096 10.667v10.667h1.808v-10.667h-1.808zM3.096 21.334c0.001 0.626 0.166 1.241 0.479 1.783l1.565-0.905c-0.155-0.268-0.236-0.571-0.237-0.88l-1.808 0.002zM3.575 23.118c0.313 0.542 0.764 0.992 1.306 1.305l0.904-1.566c-0.268-0.155-0.49-0.377-0.645-0.644l-1.565 0.905zM4.885 24.425l9.333 5.333 0.897-1.57-9.333-5.333-0.897 1.57zM14.215 29.756c0.543 0.313 1.159 0.478 1.785 0.478v-1.808c-0.309 0-0.613-0.081-0.881-0.236l-0.904 1.566zM16 30.235c0.627 0 1.243-0.165 1.785-0.478l-0.904-1.566c-0.268 0.155-0.572 0.236-0.881 0.236v1.808zM17.782 29.758l9.333-5.333-0.897-1.57-9.333 5.333 0.897 1.57zM27.119 24.423c0.542-0.313 0.993-0.763 1.306-1.305l-1.565-0.905c-0.155 0.268-0.377 0.49-0.645 0.644l0.904 1.566zM28.425 23.118c0.313-0.542 0.479-1.157 0.479-1.783l-1.808-0.002c-0 0.309-0.082 0.613-0.237 0.88l1.565 0.905zM3.907 10.063l11.64 6.733 0.905-1.565-11.64-6.733-0.905 1.565zM16.453 16.796l11.64-6.733-0.905-1.565-11.64 6.733 0.905 1.565zM16.904 29.44v-13.44h-1.808v13.44h1.808z"></path>
</symbol>
<symbol id="icon-phone-call" viewBox="0 0 32 32">
<path fill="none" stroke="#667085" stroke-linejoin="round" stroke-linecap="round" stroke-miterlimit="4" stroke-width="1.8080" d="M20.066 6.667c1.302 0.254 2.499 0.891 3.437 1.829s1.575 2.135 1.829 3.437M20.066 1.333c2.706 0.301 5.229 1.512 7.155 3.436s3.141 4.445 3.445 7.151M29.333 22.56v4c0.001 0.371-0.075 0.739-0.223 1.079s-0.367 0.646-0.64 0.897c-0.274 0.251-0.597 0.442-0.948 0.561s-0.724 0.163-1.094 0.13c-4.103-0.446-8.044-1.848-11.507-4.093-3.222-2.047-5.953-4.779-8-8-2.253-3.478-3.656-7.439-4.093-11.56-0.033-0.369 0.010-0.74 0.129-1.091s0.308-0.673 0.558-0.947c0.25-0.273 0.553-0.492 0.892-0.641s0.705-0.227 1.075-0.227h4c0.647-0.006 1.274 0.223 1.765 0.645s0.811 1.008 0.902 1.649c0.169 1.28 0.482 2.537 0.933 3.747 0.179 0.477 0.218 0.996 0.112 1.495s-0.353 0.956-0.712 1.319l-1.693 1.693c1.898 3.338 4.662 6.102 8 8l1.693-1.693c0.362-0.358 0.82-0.605 1.319-0.712s1.017-0.068 1.495 0.112c1.21 0.451 2.467 0.764 3.747 0.933 0.648 0.091 1.239 0.418 1.662 0.917s0.648 1.136 0.631 1.79z"></path>
</symbol>
<symbol id="icon-arrow-left" viewBox="0 0 32 32">
<path stroke-linejoin="round" stroke-linecap="round" stroke-miterlimit="4" stroke-width="2.6667" d="M6.667 16h18.667"></path>
<path stroke-linejoin="round" stroke-linecap="round" stroke-miterlimit="4" stroke-width="2.6667" d="M6.667 16l8 8"></path>
<path stroke-linejoin="round" stroke-linecap="round" stroke-miterlimit="4" stroke-width="2.6667" d="M6.667 16l8-8"></path>
</symbol>
<symbol id="icon-arrow-right" viewBox="0 0 32 32">
<path stroke-linejoin="round" stroke-linecap="round" stroke-miterlimit="4" stroke-width="2.6667" d="M6.667 16h18.667"></path>
<path stroke-linejoin="round" stroke-linecap="round" stroke-miterlimit="4" stroke-width="2.6667" d="M17.333 24l8-8"></path>
<path stroke-linejoin="round" stroke-linecap="round" stroke-miterlimit="4" stroke-width="2.6667" d="M17.333 8l8 8"></path>
</symbol>
<symbol id="icon-search" viewBox="0 0 32 32">
<path   d="M27.152 28.848c0.469 0.469 1.228 0.469 1.697 0s0.469-1.228 0-1.697l-1.697 1.697zM23.048 21.352c-0.469-0.469-1.228-0.469-1.697 0s-0.469 1.228 0 1.697l1.697-1.697zM24.133 14.667c0 5.228-4.238 9.467-9.467 9.467v2.4c6.554 0 11.867-5.313 11.867-11.867h-2.4zM14.667 24.133c-5.228 0-9.467-4.238-9.467-9.467h-2.4c0 6.554 5.313 11.867 11.867 11.867v-2.4zM5.2 14.667c0-5.228 4.238-9.467 9.467-9.467v-2.4c-6.554 0-11.867 5.313-11.867 11.867h2.4zM14.667 5.2c5.228 0 9.467 4.238 9.467 9.467h2.4c0-6.554-5.313-11.867-11.867-11.867v2.4zM28.848 27.152l-5.8-5.8-1.697 1.697 5.8 5.8 1.697-1.697z"></path>
</symbol>
<symbol id="icon-x" viewBox="0 0 32 32">
<path fill="#667085" d="M25.061 9.061c0.586-0.586 0.586-1.536 0-2.121s-1.535-0.586-2.121 0l2.121 2.121zM6.939 22.939c-0.586 0.586-0.586 1.535 0 2.121s1.536 0.586 2.121 0l-2.121-2.121zM9.061 6.939c-0.586-0.586-1.536-0.586-2.121 0s-0.586 1.536 0 2.121l2.121-2.121zM22.939 25.061c0.586 0.586 1.535 0.586 2.121 0s0.586-1.535 0-2.121l-2.121 2.121zM22.939 6.939l-16 16 2.121 2.121 16-16-2.121-2.121zM6.939 9.061l16 16 2.121-2.121-16-16-2.121 2.121z"></path>
</symbol>
<symbol id="icon-drone" viewBox="0 0 32 32">
<path d="M24.517 17.033c-1.204 0-2.342 0.286-3.351 0.793 0.203-0.572 0.314-1.186 0.314-1.827s-0.111-1.255-0.314-1.827c1.009 0.507 2.147 0.793 3.351 0.793 4.126 0 7.483-3.357 7.483-7.483s-3.357-7.483-7.483-7.483c-4.126 0-7.483 3.357-7.483 7.483 0 1.204 0.286 2.342 0.793 3.351-0.572-0.203-1.186-0.313-1.827-0.313s-1.255 0.111-1.827 0.313c0.507-1.009 0.793-2.147 0.793-3.351 0-4.126-3.357-7.483-7.483-7.483s-7.483 3.357-7.483 7.483c0 4.126 3.357 7.483 7.483 7.483 1.204 0 2.342-0.286 3.351-0.793-0.203 0.572-0.313 1.186-0.313 1.827s0.111 1.255 0.313 1.827c-1.009-0.507-2.147-0.793-3.351-0.793-4.126 0-7.483 3.357-7.483 7.483s3.357 7.483 7.483 7.483c4.126 0 7.483-3.357 7.483-7.483 0-1.204-0.286-2.342-0.793-3.351 0.572 0.203 1.186 0.314 1.827 0.314s1.255-0.111 1.827-0.314c-0.507 1.009-0.793 2.147-0.793 3.351 0 4.126 3.357 7.483 7.483 7.483s7.483-3.357 7.483-7.483c0-4.126-3.357-7.483-7.483-7.483zM24.517 0.939c3.608 0 6.544 2.936 6.544 6.544s-2.936 6.544-6.544 6.544c-1.636 0-3.133-0.603-4.281-1.599l3.627-3.627c0.201 0.1 0.424 0.153 0.654 0.153s0.453-0.053 0.654-0.153l2.556 2.556c0.092 0.092 0.212 0.138 0.332 0.138s0.24-0.046 0.332-0.138c0.183-0.183 0.183-0.481 0-0.664l-2.556-2.556c0.1-0.201 0.153-0.423 0.153-0.654 0-0.393-0.153-0.763-0.431-1.041s-0.648-0.431-1.041-0.431c-0.231 0-0.453 0.053-0.654 0.153l-2.556-2.556c-0.183-0.183-0.481-0.183-0.664 0s-0.183 0.481 0 0.664l2.556 2.556c-0.1 0.201-0.153 0.423-0.153 0.654s0.053 0.453 0.153 0.654l-3.627 3.627c-0.996-1.148-1.599-2.646-1.599-4.281 0-3.608 2.936-6.544 6.544-6.544zM24.517 6.951c0.142 0 0.276 0.055 0.376 0.156s0.156 0.234 0.156 0.376-0.055 0.276-0.156 0.376c-0.1 0.101-0.234 0.156-0.376 0.156s-0.276-0.055-0.376-0.156c-0.1-0.101-0.156-0.234-0.156-0.376s0.055-0.276 0.156-0.376c0.1-0.101 0.234-0.156 0.376-0.156zM0.939 7.483c0-3.608 2.936-6.544 6.544-6.544s6.544 2.936 6.544 6.544c0 1.636-0.603 3.133-1.599 4.281l-3.627-3.627c0.1-0.201 0.153-0.423 0.153-0.654s-0.053-0.453-0.153-0.654l2.556-2.556c0.183-0.183 0.183-0.481 0-0.664s-0.481-0.183-0.664 0l-2.556 2.556c-0.201-0.1-0.424-0.153-0.654-0.153-0.393 0-0.763 0.153-1.041 0.431s-0.431 0.648-0.431 1.041c0 0.231 0.053 0.453 0.153 0.654l-2.556 2.556c-0.183 0.183-0.183 0.481 0 0.664 0.092 0.092 0.212 0.138 0.332 0.138s0.24-0.046 0.332-0.138l2.556-2.556c0.201 0.1 0.423 0.153 0.654 0.153s0.453-0.053 0.654-0.153l3.627 3.627c-1.148 0.996-2.646 1.599-4.281 1.599-3.608 0-6.544-2.936-6.544-6.544zM7.483 8.016c-0.142 0-0.276-0.055-0.376-0.156s-0.156-0.234-0.156-0.376 0.055-0.276 0.156-0.376c0.101-0.101 0.234-0.156 0.376-0.156s0.276 0.055 0.376 0.156c0.101 0.101 0.156 0.234 0.156 0.376s-0.055 0.276-0.156 0.376c-0.101 0.101-0.234 0.156-0.376 0.156zM7.483 31.061c-3.608 0-6.544-2.936-6.544-6.544s2.936-6.544 6.544-6.544c1.636 0 3.133 0.603 4.281 1.599l-3.627 3.627c-0.201-0.1-0.423-0.153-0.654-0.153s-0.453 0.053-0.654 0.153l-2.556-2.556c-0.183-0.183-0.481-0.183-0.664 0s-0.183 0.481 0 0.664l2.556 2.556c-0.1 0.201-0.153 0.424-0.153 0.654 0 0.393 0.153 0.763 0.431 1.041s0.647 0.431 1.041 0.431c0.231 0 0.453-0.053 0.654-0.153l2.556 2.556c0.092 0.092 0.212 0.138 0.332 0.138s0.24-0.046 0.332-0.138c0.183-0.183 0.183-0.481 0-0.664l-2.556-2.556c0.1-0.201 0.153-0.424 0.153-0.654s-0.053-0.453-0.153-0.654l3.627-3.627c0.996 1.148 1.599 2.646 1.599 4.281 0 3.608-2.936 6.544-6.544 6.544zM7.483 25.049c-0.142 0-0.276-0.055-0.376-0.156s-0.156-0.234-0.156-0.376 0.055-0.276 0.156-0.376c0.101-0.1 0.234-0.156 0.376-0.156s0.276 0.055 0.376 0.156c0.101 0.101 0.156 0.234 0.156 0.376s-0.055 0.276-0.156 0.376c-0.101 0.101-0.234 0.156-0.376 0.156zM11.46 16c0-2.503 2.037-4.54 4.54-4.54s4.54 2.037 4.54 4.54c0 2.504-2.037 4.54-4.54 4.54s-4.54-2.037-4.54-4.54zM24.517 31.061c-3.608 0-6.544-2.936-6.544-6.544 0-1.636 0.603-3.133 1.599-4.281l3.627 3.627c-0.1 0.201-0.153 0.424-0.153 0.654s0.053 0.453 0.153 0.654l-2.556 2.556c-0.183 0.183-0.183 0.481 0 0.664 0.092 0.092 0.212 0.138 0.332 0.138s0.24-0.046 0.332-0.138l2.556-2.556c0.201 0.1 0.424 0.153 0.654 0.153 0.393 0 0.763-0.153 1.041-0.431s0.431-0.648 0.431-1.041c0-0.231-0.053-0.453-0.153-0.654l2.556-2.556c0.183-0.183 0.183-0.481 0-0.664s-0.481-0.183-0.664 0l-2.556 2.556c-0.201-0.1-0.424-0.153-0.654-0.153s-0.453 0.053-0.654 0.153l-3.627-3.627c1.148-0.996 2.646-1.599 4.281-1.599 3.608 0 6.544 2.936 6.544 6.544s-2.936 6.544-6.544 6.544zM24.517 23.984c0.142 0 0.276 0.055 0.376 0.156s0.156 0.234 0.156 0.376-0.055 0.276-0.156 0.376c-0.1 0.1-0.234 0.156-0.376 0.156s-0.276-0.055-0.376-0.156c-0.1-0.1-0.156-0.234-0.156-0.376s0.055-0.276 0.156-0.376c0.1-0.101 0.234-0.156 0.376-0.156z"></path>
<path d="M18.896 14.078c-0.144-0.216-0.435-0.275-0.651-0.131s-0.275 0.435-0.131 0.651c0.276 0.416 0.423 0.901 0.423 1.402 0 1.398-1.138 2.536-2.536 2.536s-2.536-1.138-2.536-2.536c0-1.399 1.138-2.536 2.536-2.536 0.289 0 0.573 0.048 0.843 0.143 0.245 0.086 0.513-0.042 0.599-0.287s-0.042-0.513-0.287-0.599c-0.371-0.13-0.759-0.197-1.155-0.197-1.916 0-3.476 1.559-3.476 3.476s1.559 3.476 3.476 3.476c1.916 0 3.476-1.559 3.476-3.476 0-0.688-0.2-1.352-0.58-1.922z"></path>
</symbol>
<symbol id="icon-accessory" viewBox="0 0 32 32">
<path d="M27.022 11.022h-6.544v-0.47c0-0.293-0.239-0.532-0.532-0.532h-2.474v-5.129c0.862-0.211 1.503-0.99 1.503-1.916v-0.031h3.037c0.811 0 1.472-0.66 1.472-1.472v-1.002c0-0.259-0.21-0.47-0.47-0.47h-14.027c-0.259 0-0.47 0.21-0.47 0.47v1.002c0 0.811 0.66 1.472 1.472 1.472h3.037v0.031c0 0.926 0.641 1.704 1.503 1.916v5.129h-2.474c-0.294 0-0.532 0.239-0.532 0.532v0.47h-6.544c-1.916 0-3.476 1.559-3.476 3.476v13.025c0 1.916 1.559 3.476 3.476 3.476h6.544v0.47c0 0.294 0.239 0.532 0.532 0.532h7.89c0.293 0 0.532-0.239 0.532-0.532v-0.47h6.544c1.916 0 3.476-1.559 3.476-3.476v-13.025c0-1.916-1.559-3.476-3.476-3.476zM9.456 1.472v-0.532h13.088v0.532c0 0.293-0.239 0.532-0.532 0.532h-12.024c-0.293 0-0.532-0.239-0.532-0.532zM13.965 2.975v-0.031h4.070v0.031c0 0.57-0.464 1.033-1.033 1.033h-2.004c-0.57 0-1.033-0.464-1.033-1.033zM15.468 4.947h1.065v5.072h-1.065v-5.072zM19.538 10.959v0.529c0 0.001-0 0.002-0 0.003s0 0.002 0 0.003v1.030h-7.076v-1.033c0-0 0-0 0-0.001s0-0 0-0.001v-0.532h7.076zM12.462 31.061v-0.532c0-0 0-0 0-0.001s0-0 0-0.001v-1.033h7.076v1.030c0 0.001-0 0.002-0 0.003s0 0.002 0 0.003v0.529h-7.076zM29.558 27.523c0 1.398-1.138 2.536-2.536 2.536h-6.544v-0.908c0-0.328-0.267-0.595-0.595-0.595h-7.765c-0.328 0-0.595 0.267-0.595 0.595v0.908h-6.544c-1.398 0-2.536-1.138-2.536-2.536v-13.025c0-1.399 1.138-2.536 2.536-2.536h6.544v0.908c0 0.328 0.267 0.595 0.595 0.595h7.765c0.328 0 0.595-0.267 0.595-0.595v-0.908h6.544c1.398 0 2.536 1.138 2.536 2.536v13.025z"></path>
<path d="M11.491 14.529c-3.574 0-6.481 2.908-6.481 6.481s2.908 6.481 6.481 6.481c3.574 0 6.481-2.908 6.481-6.481s-2.908-6.481-6.481-6.481zM11.491 26.552c-3.056 0-5.542-2.486-5.542-5.542s2.486-5.542 5.542-5.542c3.056 0 5.542 2.486 5.542 5.542s-2.486 5.542-5.542 5.542z"></path>
<path d="M13.731 17.132c-0.351-0.203-0.727-0.357-1.119-0.458-0.251-0.065-0.507 0.086-0.572 0.338s0.086 0.507 0.338 0.572c0.309 0.080 0.606 0.201 0.883 0.362 0.074 0.043 0.155 0.063 0.235 0.063 0.162 0 0.32-0.084 0.407-0.234 0.13-0.224 0.053-0.512-0.171-0.642z"></path>
<path d="M14.772 18.659c-0.227 0.126-0.309 0.412-0.183 0.638 0.289 0.521 0.441 1.113 0.441 1.713 0 0.3-0.038 0.598-0.111 0.885-0.065 0.251 0.087 0.507 0.338 0.572 0.039 0.010 0.079 0.015 0.117 0.015 0.209 0 0.4-0.141 0.454-0.353 0.094-0.364 0.141-0.74 0.141-1.119 0-0.759-0.193-1.508-0.559-2.168-0.126-0.227-0.412-0.309-0.639-0.183z"></path>
<path d="M12.994 20.54c-0.259 0-0.47 0.21-0.47 0.47 0 0.57-0.464 1.033-1.033 1.033s-1.033-0.464-1.033-1.033c0-0.57 0.464-1.033 1.033-1.033 0.259 0 0.47-0.21 0.47-0.47s-0.21-0.47-0.47-0.47c-1.088 0-1.973 0.885-1.973 1.972s0.885 1.973 1.973 1.973c1.088 0 1.973-0.885 1.973-1.973 0-0.259-0.21-0.47-0.47-0.47z"></path>
<path d="M27.522 14.529c-0.26 0-0.47 0.21-0.47 0.47 0 0.293-0.239 0.532-0.532 0.532s-0.532-0.239-0.532-0.532 0.239-0.532 0.532-0.532c0.26 0 0.47-0.21 0.47-0.47s-0.21-0.47-0.47-0.47c-0.811 0-1.472 0.66-1.472 1.472s0.66 1.472 1.472 1.472c0.812 0 1.472-0.66 1.472-1.472 0-0.259-0.21-0.47-0.47-0.47z"></path>
<path d="M23.515 14.528h-1.002c-0.259 0-0.47 0.21-0.47 0.47s0.21 0.47 0.47 0.47h1.002c0.259 0 0.47-0.21 0.47-0.47s-0.21-0.47-0.47-0.47z"></path>
<path d="M5.448 14.998c0-0.259-0.21-0.47-0.47-0.47h-0.501c-0.259 0-0.47 0.21-0.47 0.47s0.21 0.47 0.47 0.47h0.501c0.259 0 0.47-0.21 0.47-0.47z"></path>
</symbol>
<symbol id="icon-trash" viewBox="0 0 29 32">
<path fill="none" stroke-linejoin="round" stroke-linecap="round" stroke-miterlimit="4" stroke-width="2.1818" d="M1.457 7.273h2.909M4.366 7.273h23.273M4.366 7.273v20.364c0 0.771 0.306 1.511 0.852 2.057s1.285 0.852 2.057 0.852h14.545c0.771 0 1.511-0.306 2.057-0.852s0.852-1.286 0.852-2.057v-20.364h-20.364zM8.729 7.273v-2.909c0-0.772 0.306-1.511 0.852-2.057s1.286-0.852 2.057-0.852h5.818c0.771 0 1.511 0.306 2.057 0.852s0.852 1.286 0.852 2.057v2.909M11.639 14.545v8.727M17.457 14.545v8.727"></path>
</symbol>
<symbol id="icon-cart" viewBox="0 0 29 32">
<path fill="none" stroke-linejoin="round" stroke-linecap="round" stroke-miterlimit="4" stroke-width="2.4" d="M2.4 8.001l4-5.333h16l4 5.333M2.4 8.001v18.667c0 0.707 0.281 1.385 0.781 1.886s1.178 0.781 1.886 0.781h18.667c0.707 0 1.386-0.281 1.886-0.781s0.781-1.178 0.781-1.886v-18.667M2.4 8.001h24M19.733 13.334c0 1.414-0.562 2.771-1.562 3.771s-2.357 1.562-3.771 1.562c-1.415 0-2.771-0.562-3.771-1.562s-1.562-2.357-1.562-3.771"></path>
</symbol>
</defs>
</svg>
