<svg width="15" height="14" viewBox="0 0 15 14" fill="none" xmlns="http://www.w3.org/2000/svg">
<path d="M13.9952 6.65508C14.0008 6.76726 14.0036 6.87931 14.0037 6.99115C14.0041 7.27958 13.9866 7.56656 13.9519 7.85056C13.891 8.34757 13.7771 8.83545 13.6129 9.30595C13.339 10.0907 12.9252 10.8272 12.3842 11.4772C11.2617 12.826 9.67347 13.7041 7.93407 13.9377C6.19468 14.1713 4.43096 13.7433 2.9922 12.7385C1.55344 11.7338 0.544576 10.2255 0.165394 8.51238C-0.213789 6.79927 0.0643664 5.00626 0.944774 3.48845C1.82518 1.97063 3.24363 0.838704 4.91922 0.316825C6.59481 -0.205053 8.40534 -0.0788214 9.99225 0.670521C10.7571 1.03166 11.443 1.52484 12.0225 2.12083C12.37 2.47815 12.6791 2.87243 12.9441 3.29738C13.0866 3.52594 13.2163 3.76338 13.3322 4.0087L14.2681 1.57139C14.343 1.3763 14.5619 1.27885 14.7571 1.35374C14.9522 1.42863 15.0497 1.64749 14.9748 1.84259L13.754 5.0218C13.6791 5.21689 13.4602 5.31434 13.2651 5.23945L10.085 4.01906C9.88987 3.94417 9.7924 3.72531 9.86731 3.53022C9.94221 3.33513 10.1611 3.23768 10.3563 3.31257L12.8968 4.28753C12.7417 3.95055 12.5588 3.62928 12.3508 3.32664C11.7054 2.3874 10.8188 1.6275 9.77337 1.13382C8.30261 0.439324 6.62461 0.322332 5.07167 0.806011C3.51873 1.28969 2.2041 2.33877 1.38813 3.74548C0.572168 5.15219 0.314373 6.81396 0.665801 8.40168C1.01723 9.9894 1.95225 11.3873 3.28569 12.3185C4.61914 13.2497 6.25376 13.6463 7.86584 13.4298C9.47792 13.2134 10.9499 12.3995 11.9902 11.1495C12.7298 10.2609 13.2129 9.19803 13.4016 8.07426C13.4784 7.61714 13.5065 7.14995 13.4833 6.68032L13.9952 6.65508Z" fill="#101828"/>
</svg>
