<svg width="15" height="16" viewBox="0 0 15 16" fill="none" xmlns="http://www.w3.org/2000/svg">
<mask id="path-1-inside-1_232_1822" fill="white">
<path d="M15 9.10566V8.51842L11.9242 6.76491L11.9298 4.87574C11.9298 4.84957 11.9504 4.82801 11.9765 4.8268L11.9848 4.82632C12.0124 4.82486 12.033 4.80136 12.0313 4.77375C12.0197 4.57146 12.0911 4.31635 12.1105 4.10776C12.1117 4.09517 12.1173 4.08354 12.127 4.07554C12.143 4.06198 12.1658 4.05931 12.1839 4.06949C12.6202 4.31514 13.1447 4.49878 13.9791 4.46413C13.9827 4.46413 13.9864 4.46365 13.99 4.46268C14.1157 4.43215 14.1169 4.2742 14.0825 4.25748C13.6649 4.00844 13.1971 3.78773 12.3198 3.80009C12.2927 3.80057 12.2711 3.77901 12.2702 3.75188C12.2653 3.62081 12.198 3.49241 12.0781 3.41222C11.9252 3.30999 11.7319 3.31677 11.5947 3.41537C11.5792 3.42652 11.5584 3.42676 11.5422 3.41707C10.7226 2.93715 10.1634 2.88554 9.68497 2.9667C9.65033 2.97542 9.61762 3.00813 9.59364 3.04398C9.56287 3.0905 9.54664 3.1421 9.55972 3.15421C10.2226 3.62687 10.8166 3.54717 11.4281 3.60918C11.4348 3.61064 11.4416 3.61258 11.4482 3.61476C11.4024 3.75236 11.4344 3.90717 11.5322 4.01958C11.5407 4.02951 11.5456 4.04211 11.5448 4.05495C11.5439 4.07603 11.5431 4.09759 11.5429 4.11988C11.5407 4.26596 11.6425 4.40114 11.664 4.79337C11.6655 4.82026 11.6885 4.8411 11.7156 4.83988L11.7311 4.83916C11.7592 4.8377 11.7827 4.86023 11.7827 4.88834L11.782 6.68424L9.14279 5.17978C9.12922 6.00396 9.10257 6.94297 9.0672 7.90815C9.58177 7.93165 10.0961 8.00167 10.599 8.11529L11.7958 8.38469L11.7885 9.93566C11.7885 9.96376 11.7648 9.98605 11.7367 9.9846L11.7212 9.98387C11.6943 9.98242 11.671 10.003 11.6694 10.0301C11.6459 10.4221 11.5434 10.5568 11.5448 10.7029C11.5448 10.725 11.5453 10.7468 11.5463 10.7678C11.5468 10.7809 11.5422 10.7935 11.5334 10.8032C11.4353 10.9151 11.4021 11.0697 11.4474 11.2075C11.4409 11.2097 11.4341 11.2117 11.4273 11.2129C10.8154 11.2717 10.2221 11.1891 9.55657 11.6584C9.54349 11.6705 9.55924 11.7221 9.59 11.7689C9.61375 11.805 9.64621 11.8379 9.68085 11.8466C10.1586 11.9305 10.7182 11.8815 11.5402 11.4057C11.5567 11.3963 11.5775 11.3965 11.5928 11.4077C11.7294 11.507 11.9228 11.5145 12.0761 11.4132C12.1963 11.3338 12.2644 11.2056 12.2699 11.0745C12.2711 11.0474 12.2927 11.0261 12.3198 11.0266C13.1971 11.0435 13.6658 10.8253 14.0847 10.5781C14.1191 10.5614 14.1189 10.4035 13.9931 10.3725C13.9898 10.3715 13.9859 10.3712 13.9822 10.371C13.1479 10.332 12.6224 10.513 12.1849 10.7564C12.1665 10.7666 12.1442 10.764 12.1284 10.7504C12.1188 10.7422 12.1129 10.7303 12.1117 10.7177C12.0933 10.5091 12.0233 10.2535 12.0359 10.0515C12.0376 10.0238 12.0172 10.0001 11.9896 9.99865L11.9814 9.99816C11.9552 9.99671 11.9349 9.97515 11.9349 9.94898L11.938 8.41715L14.9993 9.10639L15 9.10566Z"/>
<path d="M8.65756 7.89604C8.69293 6.92214 8.72103 5.90609 8.73605 4.99348C8.76415 3.97161 8.77917 3.07935 8.77215 2.5253C8.77287 1.0659 8.17884 0.381022 7.80673 0.0987844C7.62648 -0.032038 7.39246 -0.0337339 7.21948 0.0985421C6.84591 0.381748 6.2451 1.06614 6.2371 2.52384C6.23686 3.06167 6.24946 3.94109 6.27078 4.94261C6.29209 5.86854 6.31923 6.89913 6.35218 7.89483C6.42655 10.0374 6.53751 11.9867 6.66106 12.1858C6.66106 12.1858 7.08309 14.208 7.3646 14.9726C7.41256 15.1019 7.59426 15.1034 7.64078 14.9726C7.92326 14.2082 8.34722 12.1865 8.34722 12.1865C8.46205 11.9876 8.57204 10.0384 8.65756 7.89604Z"/>
<path d="M6.26568 12.322C6.26422 12.3176 6.26277 12.3132 6.26132 12.3089L4.13133 13.4981V14.161L6.55131 13.588C6.41346 13.0139 6.30177 12.4862 6.26568 12.322Z"/>
<path d="M8.73533 12.322C8.7019 12.4862 8.58804 13.0124 8.4497 13.5892L10.8738 14.1632V13.5032L8.7409 12.3074C8.738 12.3132 8.73679 12.3176 8.73533 12.322Z"/>
<path d="M5.3613 11.8704C5.39594 11.8617 5.4284 11.8287 5.45215 11.7926C5.48267 11.7461 5.49866 11.6943 5.48558 11.6821C4.82032 11.2129 4.22678 11.2955 3.61482 11.2366C3.60803 11.2352 3.60125 11.2332 3.59471 11.2313C3.64001 11.0934 3.60682 10.9389 3.50871 10.8269C3.49998 10.817 3.49538 10.8047 3.49587 10.7916C3.49683 10.7705 3.49732 10.7489 3.49732 10.7266C3.49853 10.5806 3.39629 10.4459 3.3728 10.0539C3.3711 10.027 3.34808 10.0062 3.32095 10.0076L3.30545 10.0083C3.27734 10.0098 3.2536 9.9875 3.2536 9.9594L3.24609 8.36918L4.39975 8.1102C4.9056 7.99706 5.41871 7.92899 5.93764 7.90743C5.90905 7.07307 5.88192 6.13551 5.86206 5.17905L3.2599 6.65783L3.25917 4.91208C3.25917 4.88398 3.28267 4.86144 3.31078 4.8629L3.32628 4.86363C3.35317 4.86484 3.37643 4.84424 3.37788 4.81711C3.39944 4.42489 3.5012 4.2897 3.49902 4.14362C3.49902 4.12157 3.49829 4.09977 3.49708 4.07869C3.49635 4.06561 3.5012 4.05301 3.50967 4.04332C3.60731 3.93091 3.63953 3.7761 3.59374 3.6385C3.60028 3.63632 3.60706 3.63438 3.61385 3.63293C4.22532 3.57091 4.81935 3.65061 5.48219 3.17795C5.49527 3.16584 5.47904 3.11424 5.44827 3.06772C5.42428 3.03163 5.39158 2.99892 5.35694 2.99044C4.87871 2.90904 4.31956 2.96089 3.49974 3.44081C3.48327 3.4505 3.46243 3.45026 3.44717 3.43911C3.31005 3.34051 3.11672 3.33397 2.96385 3.43597C2.84393 3.51615 2.77683 3.64455 2.77174 3.77562C2.77077 3.80275 2.74921 3.82407 2.72207 3.82383C1.84484 3.81123 1.37703 4.03193 0.959364 4.28122C0.924963 4.29794 0.926174 4.4559 1.05191 4.48642C1.0553 4.48715 1.05918 4.48763 1.06281 4.48787C1.89717 4.52276 2.42167 4.33912 2.85799 4.09323C2.87615 4.08305 2.89869 4.08547 2.91443 4.09904C2.92412 4.10728 2.93018 4.11915 2.93139 4.1315C2.95077 4.33985 3.02224 4.5952 3.01061 4.79749C3.00916 4.82511 3.02975 4.8486 3.05713 4.85006L3.06536 4.85054C3.09153 4.85175 3.11212 4.87332 3.11212 4.89948L3.11769 6.73826L0 8.51066V9.09791L3.1034 8.4014L3.10655 9.97248C3.10655 9.99865 3.0862 10.0202 3.06003 10.0217L3.0518 10.0221C3.02418 10.0236 3.00383 10.0473 3.00552 10.075C3.01812 10.277 2.94811 10.5328 2.9297 10.7412C2.92848 10.7538 2.92315 10.7654 2.91346 10.7736C2.89747 10.7872 2.8747 10.7901 2.85653 10.7799C2.419 10.5365 1.89353 10.3555 1.05918 10.3945C1.05554 10.3945 1.05191 10.3952 1.04828 10.396C0.92254 10.427 0.922298 10.5849 0.956699 10.6016C1.37582 10.8487 1.84435 11.067 2.72159 11.0501C2.74872 11.0496 2.77029 11.0709 2.7715 11.098C2.77707 11.2291 2.8449 11.3573 2.96531 11.4367C3.11866 11.5382 3.31199 11.5305 3.44862 11.4312C3.46389 11.42 3.48472 11.4198 3.5012 11.4292C4.3232 11.9048 4.88331 11.9542 5.3613 11.8704Z"/>
<path d="M7.19231 14.7969C6.73055 14.6404 5.95192 14.45 5.46109 14.8134C5.43493 14.8328 5.43493 14.8778 5.46061 14.8972C5.96645 15.2817 6.84514 15.0593 7.23979 14.9297C7.22647 14.8904 7.21169 14.8396 7.19231 14.7969Z"/>
<path d="M9.53936 14.8134C9.04854 14.45 8.2699 14.6404 7.80815 14.7969C7.78877 14.8398 7.77399 14.8904 7.76066 14.9297C8.15531 15.0595 9.034 15.2819 9.53985 14.8975C9.56553 14.8778 9.56529 14.8328 9.53936 14.8134Z"/>
</mask>
<path d="M15 9.10566L15.708 9.81184L16 9.51911V9.10566H15ZM15 8.51842H16V7.93742L15.4953 7.64968L15 8.51842ZM11.9242 6.76491L10.9242 6.76196L10.9225 7.34493L11.4289 7.63365L11.9242 6.76491ZM11.9298 4.87574L12.9298 4.87869V4.87574H11.9298ZM11.9765 4.8268L12.0228 5.82581L12.0353 5.82507L11.9765 4.8268ZM11.9848 4.82632L11.9322 3.82768L11.926 3.82805L11.9848 4.82632ZM12.0313 4.77375L11.0329 4.83114L11.0332 4.83503L12.0313 4.77375ZM12.1105 4.10776L11.1151 4.01205L11.1148 4.01525L12.1105 4.10776ZM12.127 4.07554L12.7634 4.84699L12.774 4.83805L12.127 4.07554ZM12.1839 4.06949L12.6745 3.1981L12.6725 3.19698L12.1839 4.06949ZM13.9791 4.46413V3.46413H13.9583L13.9376 3.46499L13.9791 4.46413ZM13.99 4.46268L13.7541 3.49091L13.7432 3.49355L13.7323 3.49644L13.99 4.46268ZM14.0825 4.25748L13.5704 5.11638L13.6071 5.13825L13.6455 5.15692L14.0825 4.25748ZM12.3198 3.80009L12.3057 2.80018L12.302 2.80025L12.3198 3.80009ZM12.2702 3.75188L13.2695 3.71619L13.2695 3.71493L12.2702 3.75188ZM12.0781 3.41222L11.5221 4.24346L11.5222 4.2435L12.0781 3.41222ZM11.5947 3.41537L12.1784 4.22739L12.1785 4.22726L11.5947 3.41537ZM11.5422 3.41707L12.0548 2.55842L12.0475 2.55413L11.5422 3.41707ZM9.68497 2.9667L9.51774 1.98078L9.47897 1.98736L9.44084 1.99696L9.68497 2.9667ZM9.59364 3.04398L8.76244 2.48798L8.75959 2.49229L9.59364 3.04398ZM9.55972 3.15421L8.88031 3.88797L8.92715 3.93135L8.97913 3.96841L9.55972 3.15421ZM11.4281 3.60918L11.6376 2.63138L11.5837 2.61985L11.529 2.61429L11.4281 3.60918ZM11.4482 3.61476L12.397 3.93048L12.7126 2.98213L11.7644 2.66607L11.4482 3.61476ZM11.5322 4.01958L12.2928 3.37029L12.2864 3.36292L11.5322 4.01958ZM11.5448 4.05495L10.5464 3.99843L10.5459 4.00902L11.5448 4.05495ZM11.5429 4.11988L12.5428 4.1348L12.5428 4.13075L11.5429 4.11988ZM11.664 4.79337L12.6626 4.73939L12.6625 4.73848L11.664 4.79337ZM11.7156 4.83988L11.7602 5.83889L11.7624 5.83879L11.7156 4.83988ZM11.7311 4.83916L11.7779 5.83807L11.7828 5.83782L11.7311 4.83916ZM11.7827 4.88834L12.7827 4.88874V4.88834H11.7827ZM11.782 6.68424L11.2868 7.553L12.7813 8.40494L12.782 6.68464L11.782 6.68424ZM9.14279 5.17978L9.63801 4.31102L8.17072 3.4746L8.14292 5.16332L9.14279 5.17978ZM9.0672 7.90815L8.06787 7.87153L8.03158 8.8619L9.02158 8.90711L9.0672 7.90815ZM10.599 8.11529L10.3787 9.09071L10.3794 9.09088L10.599 8.11529ZM11.7958 8.38469L12.7958 8.38937L12.7996 7.58561L12.0154 7.4091L11.7958 8.38469ZM11.7885 9.93566L10.7885 9.93097V9.93566H11.7885ZM11.7367 9.9846L11.7884 8.98592L11.7836 8.9857L11.7367 9.9846ZM11.7212 9.98387L11.6672 10.9824L11.6743 10.9828L11.7212 9.98387ZM11.6694 10.0301L10.6713 9.96776L10.6711 9.9703L11.6694 10.0301ZM11.5448 10.7029L12.5449 10.7029L12.5448 10.693L11.5448 10.7029ZM11.5463 10.7678L12.5456 10.7308L12.5452 10.7219L11.5463 10.7678ZM11.5334 10.8032L10.7901 10.1342L10.7815 10.144L11.5334 10.8032ZM11.4474 11.2075L11.7637 12.1562L12.7084 11.8413L12.3975 10.8953L11.4474 11.2075ZM11.4273 11.2129L11.5231 12.2083L11.5633 12.2044L11.6031 12.1973L11.4273 11.2129ZM9.55657 11.6584L8.9803 10.8411L8.92595 10.8795L8.87716 10.9246L9.55657 11.6584ZM9.59 11.7689L10.4255 11.2194L10.4254 11.2192L9.59 11.7689ZM9.68085 11.8466L9.43672 12.8164L9.4721 12.8253L9.50804 12.8316L9.68085 11.8466ZM11.5402 11.4057L11.0427 10.5383L11.0393 10.5402L11.5402 11.4057ZM11.5928 11.4077L11.0031 12.2153L11.0048 12.2165L11.5928 11.4077ZM12.0761 11.4132L12.6272 12.2477L12.6277 12.2473L12.0761 11.4132ZM12.2699 11.0745L11.2709 11.0299L11.2708 11.0321L12.2699 11.0745ZM12.3198 11.0266L12.3392 10.0268L12.3377 10.0267L12.3198 11.0266ZM14.0847 10.5781L13.6477 9.67871L13.6114 9.69634L13.5766 9.71685L14.0847 10.5781ZM13.9931 10.3725L13.7184 11.334L13.736 11.339L13.7537 11.3434L13.9931 10.3725ZM13.9822 10.371L14.0488 9.37322L14.0389 9.37256L14.0289 9.3721L13.9822 10.371ZM12.1849 10.7564L12.6686 11.6317L12.6711 11.6303L12.1849 10.7564ZM12.1284 10.7504L12.7812 9.99277L12.7761 9.98845L12.1284 10.7504ZM12.1117 10.7177L11.1156 10.8056L11.1163 10.8134L12.1117 10.7177ZM12.0359 10.0515L13.034 10.1137L13.034 10.1127L12.0359 10.0515ZM11.9896 9.99865L11.9309 10.9969L11.9371 10.9973L11.9896 9.99865ZM11.9814 9.99816L12.0401 8.99988L12.0369 8.9997L11.9814 9.99816ZM11.9349 9.94898L10.9349 9.94693V9.94898H11.9349ZM11.938 8.41715L12.1577 7.44157L10.9406 7.16754L10.938 8.41509L11.938 8.41715ZM14.9993 9.10639L14.7796 10.082L15.3178 10.2031L15.7073 9.81257L14.9993 9.10639ZM8.65756 7.89604L9.65677 7.93593L9.6569 7.93234L8.65756 7.89604ZM8.73605 4.99348L7.73637 4.96599L7.73619 4.97702L8.73605 4.99348ZM8.77215 2.5253L7.77206 2.5248L7.77223 2.53798L8.77215 2.5253ZM7.80673 0.0987844L8.41103 -0.697967L8.40264 -0.704331L8.39412 -0.710516L7.80673 0.0987844ZM7.21948 0.0985421L7.82361 0.895438L7.82693 0.8929L7.21948 0.0985421ZM6.2371 2.52384L5.2371 2.51836L5.2371 2.52339L6.2371 2.52384ZM6.27078 4.94261L5.271 4.96389L5.27104 4.96562L6.27078 4.94261ZM6.35218 7.89483L5.35272 7.9279L5.35278 7.92952L6.35218 7.89483ZM6.66106 12.1858L7.63997 11.9815L7.6039 11.8086L7.5108 11.6586L6.66106 12.1858ZM7.3646 14.9726L6.42618 15.3181L6.42697 15.3202L7.3646 14.9726ZM7.64078 14.9726L6.70271 14.6259L6.69856 14.6376L7.64078 14.9726ZM8.34722 12.1865L7.48119 11.6865L7.4013 11.8249L7.36851 11.9813L8.34722 12.1865ZM6.26568 12.322L7.24237 12.1073L7.23104 12.0558L7.21436 12.0057L6.26568 12.322ZM6.26132 12.3089L7.21 11.9926L6.82814 10.8471L5.77381 11.4358L6.26132 12.3089ZM4.13133 13.4981L3.64383 12.625L3.13133 12.9112V13.4981H4.13133ZM4.13133 14.161H3.13133V15.4254L4.36172 15.1341L4.13133 14.161ZM6.55131 13.588L6.7817 14.5611L7.75786 14.33L7.52367 13.3546L6.55131 13.588ZM8.73533 12.322L7.78665 12.0057L7.7675 12.0632L7.75542 12.1225L8.73533 12.322ZM8.4497 13.5892L7.47728 13.356L7.2434 14.3313L8.21931 14.5623L8.4497 13.5892ZM10.8738 14.1632L10.6434 15.1363L11.8738 15.4276V14.1632H10.8738ZM10.8738 13.5032H11.8738V12.9174L11.3628 12.631L10.8738 13.5032ZM8.7409 12.3074L9.22994 11.4352L8.31538 10.9224L7.84648 11.8602L8.7409 12.3074ZM5.3613 11.8704L5.53403 12.8553L5.57001 12.849L5.60543 12.8401L5.3613 11.8704ZM5.45215 11.7926L6.28763 12.3421L6.28819 12.3413L5.45215 11.7926ZM5.48558 11.6821L6.16499 10.9484L6.11626 10.9033L6.06199 10.865L5.48558 11.6821ZM3.61482 11.2366L3.40529 12.2144L3.46167 12.2265L3.51906 12.232L3.61482 11.2366ZM3.59471 11.2313L2.6447 10.9191L2.32314 11.8975L3.31062 12.1901L3.59471 11.2313ZM3.50871 10.8269L4.26068 10.1678L4.26015 10.1671L3.50871 10.8269ZM3.49587 10.7916L2.49688 10.7456L2.49655 10.7546L3.49587 10.7916ZM3.49732 10.7266L2.49732 10.7184V10.7266H3.49732ZM3.3728 10.0539L4.37101 9.99404L4.37081 9.99095L3.3728 10.0539ZM3.32095 10.0076L3.36777 11.0065L3.37445 11.0062L3.32095 10.0076ZM3.30545 10.0083L3.25863 9.00942L3.25379 9.00967L3.30545 10.0083ZM3.2536 9.9594L4.25361 9.9594L4.25359 9.95468L3.2536 9.9594ZM3.24609 8.36918L3.02706 7.39346L2.2423 7.56963L2.2461 8.3739L3.24609 8.36918ZM4.39975 8.1102L4.18148 7.13431L4.18072 7.13448L4.39975 8.1102ZM5.93764 7.90743L5.97916 8.90656L6.97105 8.86535L6.93706 7.87318L5.93764 7.90743ZM5.86206 5.17905L6.86184 5.15829L6.82699 3.48049L5.36797 4.30964L5.86206 5.17905ZM3.2599 6.65783L2.2599 6.65825L2.26062 8.37591L3.75398 7.52725L3.2599 6.65783ZM3.25917 4.91208L2.25917 4.91208L2.25917 4.91249L3.25917 4.91208ZM3.31078 4.8629L3.25912 5.86158L3.26396 5.8618L3.31078 4.8629ZM3.32628 4.86363L3.27946 5.86253L3.28128 5.86261L3.32628 4.86363ZM3.37788 4.81711L2.37939 4.76222L2.37932 4.76362L3.37788 4.81711ZM3.49902 4.14362H2.49902V4.15108L2.49913 4.15854L3.49902 4.14362ZM3.49708 4.07869L2.49861 4.13416L2.49872 4.13607L3.49708 4.07869ZM3.50967 4.04332L4.26226 4.70183L4.26467 4.69906L3.50967 4.04332ZM3.59374 3.6385L3.27751 2.68981L2.32933 3.00588L2.64489 3.95422L3.59374 3.6385ZM3.61385 3.63293L3.51294 2.63803L3.45816 2.64359L3.40432 2.65512L3.61385 3.63293ZM5.48219 3.17795L6.06278 3.99215L6.11475 3.95509L6.16159 3.91171L5.48219 3.17795ZM5.44827 3.06772L6.28232 2.51603L6.28118 2.51431L5.44827 3.06772ZM5.35694 2.99044L5.59467 2.01911L5.55996 2.01062L5.52473 2.00462L5.35694 2.99044ZM3.49974 3.44081L2.99454 2.57781L2.99272 2.57888L3.49974 3.44081ZM3.44717 3.43911L4.03688 2.63147L4.03098 2.62723L3.44717 3.43911ZM2.96385 3.43597L2.40885 2.60412L2.40799 2.60469L2.96385 3.43597ZM2.77174 3.77562L1.77249 3.73683L1.77238 3.73993L2.77174 3.77562ZM2.72207 3.82383L2.70772 4.82374L2.71315 4.82379L2.72207 3.82383ZM0.959364 4.28122L1.39641 5.18066L1.43502 5.1619L1.47188 5.1399L0.959364 4.28122ZM1.05191 4.48642L0.815988 5.45819L0.829143 5.46139L0.84238 5.46422L1.05191 4.48642ZM1.06281 4.48787L0.996292 5.48566L1.00866 5.48648L1.02104 5.487L1.06281 4.48787ZM2.85799 4.09323L2.36938 3.22072L2.36701 3.22205L2.85799 4.09323ZM2.91443 4.09904L2.26171 4.85667L2.26678 4.86098L2.91443 4.09904ZM2.93139 4.1315L3.9271 4.03888L3.92662 4.03393L2.93139 4.1315ZM3.01061 4.79749L2.01225 4.7401L2.01199 4.74493L3.01061 4.79749ZM3.05713 4.85006L3.11584 3.85177L3.11015 3.85147L3.05713 4.85006ZM3.06536 4.85054L3.00664 5.8489L3.01912 5.84947L3.06536 4.85054ZM3.11212 4.89948L2.11212 4.89948L2.11212 4.90251L3.11212 4.89948ZM3.11769 6.73826L3.61191 7.6076L4.11946 7.31906L4.11769 6.73523L3.11769 6.73826ZM0 8.51066L-0.494217 7.64132L-1 7.92886V8.51066H0ZM0 9.09791H-1V10.3472L0.218987 10.0736L0 9.09791ZM3.1034 8.4014L4.1034 8.3994L4.1009 7.15265L2.88441 7.42567L3.1034 8.4014ZM3.10655 9.97248L4.10655 9.97248L4.10655 9.97048L3.10655 9.97248ZM3.06003 10.0217L3.00456 9.0232L3.00143 9.02338L3.06003 10.0217ZM3.0518 10.0221L3.10436 11.0208L3.1104 11.0204L3.0518 10.0221ZM3.00552 10.075L2.0074 10.1362L2.00746 10.1372L3.00552 10.075ZM2.9297 10.7412L3.92513 10.8369L3.92581 10.8292L2.9297 10.7412ZM2.91346 10.7736L3.56044 11.5362L3.56111 11.5356L2.91346 10.7736ZM2.85653 10.7799L3.34514 9.90744L3.34279 9.90613L2.85653 10.7799ZM1.05918 10.3945V11.3945H1.08254L1.10587 11.3934L1.05918 10.3945ZM1.04828 10.396L0.852159 9.41538L0.830383 9.41973L0.808822 9.42505L1.04828 10.396ZM0.956699 10.6016L1.46459 9.74022L1.42993 9.71979L1.39375 9.7022L0.956699 10.6016ZM2.72159 11.0501L2.70374 10.0502L2.70226 10.0503L2.72159 11.0501ZM2.7715 11.098L3.7706 11.0556L3.7705 11.0534L2.7715 11.098ZM2.96531 11.4367L3.51727 10.6029L3.51613 10.6021L2.96531 11.4367ZM3.44862 11.4312L4.03663 12.24L4.03832 12.2388L3.44862 11.4312ZM3.5012 11.4292L4.00197 10.5636L3.99871 10.5618L3.5012 11.4292ZM7.19231 14.7969L8.10267 14.3831L7.92346 13.9889L7.5133 13.8498L7.19231 14.7969ZM5.46109 14.8134L4.86605 14.0097L4.86586 14.0098L5.46109 14.8134ZM5.46061 14.8972L6.06572 14.1011L6.06301 14.099L5.46061 14.8972ZM7.23979 14.9297L7.55182 15.8798L8.51141 15.5646L8.18671 14.6082L7.23979 14.9297ZM9.53936 14.8134L10.1382 14.0125L10.1344 14.0097L9.53936 14.8134ZM7.80815 14.7969L7.48715 13.8498L7.07579 13.9893L6.8969 14.3851L7.80815 14.7969ZM7.76066 14.9297L6.81375 14.6082L6.48922 15.5641L7.44811 15.8796L7.76066 14.9297ZM9.53985 14.8975L10.145 15.6936L10.147 15.692L9.53985 14.8975ZM16 9.10566V8.51842H14V9.10566H16ZM15.4953 7.64968L12.4195 5.89617L11.4289 7.63365L14.5047 9.38716L15.4953 7.64968ZM12.9242 6.76786L12.9298 4.87869L10.9298 4.87279L10.9242 6.76196L12.9242 6.76786ZM12.9298 4.87574C12.9298 5.38442 12.5298 5.80226 12.0228 5.82573L11.9303 3.82787C11.3709 3.85377 10.9298 4.31473 10.9298 4.87574H12.9298ZM12.0353 5.82507L12.0436 5.82459L11.926 3.82805L11.9178 3.82853L12.0353 5.82507ZM12.0373 5.82494C12.6304 5.79372 13.0645 5.28421 13.0294 4.71246L11.0332 4.83503C11.0015 4.31852 11.3944 3.856 11.9322 3.8277L12.0373 5.82494ZM13.0296 4.71636C13.0307 4.73537 13.0278 4.71694 13.0462 4.60457C13.0501 4.58036 13.0544 4.5554 13.0594 4.52616C13.0642 4.49825 13.0698 4.4658 13.0752 4.43309C13.0857 4.36896 13.0982 4.28707 13.1062 4.20028L11.1148 4.01525C11.1094 4.07338 11.0988 4.12008 11.0724 4.28167C11.0531 4.39956 11.0202 4.60983 11.0329 4.83114L13.0296 4.71636ZM13.1059 4.20348C13.085 4.42148 12.9826 4.66602 12.7634 4.84692L11.4906 3.30417C11.252 3.50105 11.1385 3.76885 11.1151 4.01205L13.1059 4.20348ZM12.774 4.83805C12.4871 5.08149 12.059 5.14563 11.6953 4.94199L12.6725 3.19698C12.2725 2.97299 11.7989 3.04246 11.48 3.31303L12.774 4.83805ZM11.6933 4.94087C12.281 5.27177 12.9886 5.50612 14.0206 5.46327L13.9376 3.46499C13.3009 3.49143 12.9594 3.35852 12.6745 3.1981L11.6933 4.94087ZM13.9791 5.46413C14.0727 5.46413 14.1629 5.45151 14.2477 5.42891L13.7323 3.49644C13.8098 3.47579 13.8927 3.46413 13.9791 3.46413V5.46413ZM14.2259 5.43445C14.7397 5.30972 14.9871 4.90506 15.0646 4.60488C15.1018 4.46071 15.1137 4.30058 15.0883 4.13771C15.0757 4.05725 15.0488 3.9432 14.9866 3.81972C14.931 3.70954 14.7966 3.49267 14.5196 3.35805L13.6455 5.15692C13.377 5.02647 13.2501 4.81819 13.2006 4.71997C13.1444 4.60845 13.1221 4.50972 13.1123 4.4469C13.0923 4.3193 13.1026 4.2037 13.1281 4.10493C13.1821 3.89553 13.366 3.58512 13.7541 3.49091L14.2259 5.43445ZM14.5947 3.39859C14.06 3.07978 13.4115 2.78461 12.3057 2.80019L12.3339 4.79999C12.6829 4.79507 12.9149 4.83652 13.0827 4.88752C13.2512 4.93876 13.3937 5.011 13.5704 5.11638L14.5947 3.39859ZM12.302 2.80025C12.8506 2.79045 13.2521 3.22935 13.2695 3.71619L11.2708 3.78757C11.2901 4.32868 11.7348 4.8107 12.3377 4.79993L12.302 2.80025ZM13.2695 3.71493C13.253 3.26779 13.0242 2.84195 12.6339 2.58095L11.5222 4.2435C11.3717 4.14288 11.2777 3.97384 11.2708 3.78882L13.2695 3.71493ZM12.634 2.58099C12.1374 2.24892 11.4898 2.25917 11.0109 2.60349L12.1785 4.22726C11.974 4.37438 11.7129 4.37106 11.5221 4.24346L12.634 2.58099ZM11.0111 2.60336C11.3397 2.36719 11.7512 2.37723 12.0548 2.55845L11.0296 4.27569C11.3656 4.47629 11.8188 4.48585 12.1784 4.22739L11.0111 2.60336ZM12.0475 2.55413C11.0554 1.97322 10.2603 1.85483 9.51774 1.98078L9.8522 3.95262C9.98431 3.93021 10.117 3.92624 10.2823 3.96058C10.4554 3.99654 10.6984 4.08183 11.0369 4.28001L12.0475 2.55413ZM9.44084 1.99696C9.03423 2.09932 8.82293 2.39758 8.76245 2.48799L10.4248 3.59998C10.4011 3.63538 10.3613 3.68794 10.2988 3.74338C10.2416 3.79409 10.1188 3.88869 9.9291 3.93644L9.44084 1.99696ZM8.75959 2.49229C8.70078 2.5812 8.64376 2.69106 8.60505 2.816C8.58704 2.87412 8.55844 2.98127 8.55543 3.11602C8.55357 3.19887 8.55045 3.58255 8.88031 3.88797L10.2391 2.42045C10.4082 2.57702 10.4846 2.75542 10.5188 2.87728C10.5527 2.99778 10.5563 3.09931 10.5549 3.16082C10.5522 3.28104 10.5272 3.3701 10.5154 3.408C10.4892 3.49248 10.4557 3.55328 10.4277 3.59567L8.75959 2.49229ZM8.97913 3.96841C9.9243 4.64239 10.9402 4.56484 11.3272 4.60408L11.529 2.61429C10.6929 2.52949 10.5208 2.61135 10.1403 2.34002L8.97913 3.96841ZM11.2185 4.58699C11.1819 4.57914 11.1525 4.57029 11.1319 4.56344L11.7644 2.66607C11.7308 2.65486 11.6878 2.64214 11.6376 2.63138L11.2185 4.58699ZM10.4993 3.29903C10.3385 3.78234 10.4548 4.30498 10.778 4.67624L12.2864 3.36292C12.4139 3.50935 12.4663 3.72238 12.397 3.93048L10.4993 3.29903ZM10.7717 4.66884C10.6357 4.50958 10.5307 4.2757 10.5464 3.99844L12.5432 4.11146C12.5604 3.80852 12.4457 3.54944 12.2928 3.37032L10.7717 4.66884ZM10.5459 4.00902C10.5445 4.03838 10.5434 4.07206 10.543 4.10901L12.5428 4.13075C12.5429 4.12312 12.5432 4.11368 12.5438 4.10088L10.5459 4.00902ZM10.543 4.10495C10.5407 4.26067 10.5669 4.38861 10.5862 4.46791C10.5999 4.52431 10.6282 4.6217 10.6305 4.63003C10.6451 4.68304 10.6597 4.74215 10.6655 4.84826L12.6625 4.73848C12.6468 4.45237 12.5997 4.24777 12.5586 4.09861C12.5503 4.06842 12.5407 4.03527 12.5365 4.02051C12.5339 4.01122 12.5322 4.00506 12.5309 4.00045C12.5297 3.99595 12.5294 3.99455 12.5295 3.99526C12.5297 3.99586 12.544 4.05212 12.5428 4.1348L10.543 4.10495ZM10.6655 4.84735C10.6967 5.42552 11.1885 5.86441 11.7602 5.83889L11.671 3.84088C12.1885 3.81778 12.6342 4.21501 12.6626 4.73939L10.6655 4.84735ZM11.7624 5.83879L11.7779 5.83806L11.6843 3.84025L11.6688 3.84098L11.7624 5.83879ZM11.7828 5.83782C11.2338 5.86622 10.7827 5.4275 10.7827 4.88834H12.7827C12.7827 4.29297 12.2847 3.80919 11.6795 3.84049L11.7828 5.83782ZM10.7827 4.88793L10.782 6.68383L12.782 6.68464L12.7827 4.88874L10.7827 4.88793ZM12.2772 5.81548L9.63801 4.31102L8.64756 6.04854L11.2868 7.553L12.2772 5.81548ZM8.14292 5.16332C8.12949 5.97913 8.10306 6.91119 8.06787 7.87153L10.0665 7.94478C10.1021 6.97476 10.1289 6.02879 10.1426 5.19624L8.14292 5.16332ZM9.02158 8.90711C9.47636 8.92788 9.93223 8.98985 10.3787 9.09071L10.8194 7.13987C10.26 7.01349 9.68717 6.93542 9.11282 6.90919L9.02158 8.90711ZM10.3794 9.09088L11.5762 9.36028L12.0154 7.4091L10.8186 7.1397L10.3794 9.09088ZM10.7958 8.38L10.7886 9.93097L12.7885 9.94035L12.7958 8.38937L10.7958 8.38ZM10.7885 9.93566C10.7885 9.38377 11.2521 8.95819 11.7884 8.98593L11.685 10.9833C12.2775 11.0139 12.7885 10.5438 12.7885 9.93566H10.7885ZM11.7836 8.9857L11.7681 8.98497L11.6743 10.9828L11.6898 10.9835L11.7836 8.9857ZM11.7752 8.98533C11.1996 8.95421 10.7072 9.39319 10.6713 9.96776L12.6674 10.0925C12.6349 10.6128 12.189 11.0106 11.6672 10.9824L11.7752 8.98533ZM10.6711 9.9703C10.6648 10.0762 10.6499 10.1352 10.6351 10.1881C10.6327 10.1964 10.6039 10.2937 10.5899 10.35C10.5702 10.4292 10.5433 10.5571 10.5449 10.7129L12.5448 10.693C12.5456 10.7757 12.531 10.8319 12.5308 10.8326C12.5306 10.8333 12.531 10.8319 12.5322 10.8274C12.5335 10.8228 12.5352 10.8166 12.5379 10.8074C12.5422 10.7926 12.5519 10.7595 12.5604 10.7294C12.6023 10.5804 12.6504 10.376 12.6676 10.09L10.6711 9.9703ZM10.5448 10.7029C10.5448 10.7394 10.5456 10.7766 10.5473 10.8138L12.5452 10.7219C12.545 10.717 12.5448 10.7105 12.5448 10.7029H10.5448ZM10.547 10.8048C10.5378 10.557 10.6259 10.3168 10.7901 10.1342L12.2767 11.4722C12.4584 11.2703 12.5557 11.0048 12.5456 10.7308L10.547 10.8048ZM10.7815 10.144C10.4594 10.5114 10.3374 11.0328 10.4974 11.5198L12.3975 10.8953C12.4669 11.1065 12.4113 11.3188 12.2854 11.4624L10.7815 10.144ZM11.1312 10.2589C11.1501 10.2526 11.1933 10.2388 11.2515 10.2284L11.6031 12.1973C11.6749 12.1845 11.7317 12.1669 11.7637 12.1562L11.1312 10.2589ZM11.3316 10.2175C10.9438 10.2548 9.92909 10.1721 8.9803 10.8411L10.1328 12.4757C10.5151 12.2061 10.6869 12.2887 11.5231 12.2083L11.3316 10.2175ZM8.87716 10.9246C8.55032 11.2273 8.55073 11.6069 8.55208 11.6903C8.55425 11.8249 8.58209 11.9322 8.59993 11.991C8.63818 12.1171 8.69518 12.2282 8.75464 12.3186L10.4254 11.2192C10.4541 11.2628 10.4878 11.3247 10.5138 11.4103C10.5255 11.4488 10.5499 11.538 10.5518 11.6581C10.5528 11.7195 10.5486 11.8203 10.5144 11.9397C10.4799 12.0603 10.4037 12.2369 10.236 12.3922L8.87716 10.9246ZM8.75452 12.3184C8.81348 12.408 9.0248 12.7127 9.43672 12.8164L9.92498 10.8769C10.1176 10.9254 10.2418 11.0222 10.2994 11.0739C10.3624 11.1304 10.4022 11.1839 10.4255 11.2194L8.75452 12.3184ZM9.50804 12.8316C10.2502 12.9618 11.0465 12.847 12.0412 12.2712L11.0393 10.5402C10.6998 10.7367 10.4563 10.8208 10.283 10.8559C10.1175 10.8894 9.98509 10.8847 9.85367 10.8617L9.50804 12.8316ZM12.0377 12.2732C11.7473 12.4397 11.3385 12.4602 11.0031 12.2153L12.1825 10.6C11.8166 10.3328 11.3661 10.3528 11.0427 10.5383L12.0377 12.2732ZM11.0048 12.2165C11.4828 12.564 12.1302 12.5759 12.6272 12.2477L11.5251 10.5787C11.7153 10.4531 11.9761 10.45 12.1808 10.5988L11.0048 12.2165ZM12.6277 12.2473C13.0194 11.9883 13.25 11.5635 13.269 11.117L11.2708 11.0321C11.2787 10.8477 11.3731 10.6792 11.5245 10.5791L12.6277 12.2473ZM13.2689 11.1191C13.2473 11.6038 12.8457 12.0361 12.302 12.0264L12.3377 10.0267C11.7397 10.0161 11.295 10.491 11.2709 11.0299L13.2689 11.1191ZM12.3005 12.0264C13.4063 12.0478 14.0564 11.7559 14.5928 11.4394L13.5766 9.71685C13.3995 9.82135 13.2568 9.89282 13.0882 9.94316C12.9203 9.99326 12.6881 10.0335 12.3392 10.0268L12.3005 12.0264ZM14.5218 11.4776C14.7975 11.3436 14.9317 11.1282 14.9872 11.019C15.0496 10.8964 15.0768 10.783 15.0898 10.7028C15.116 10.5405 15.1051 10.3804 15.0686 10.2358C14.9925 9.93451 14.7465 9.52829 14.2326 9.40155L13.7537 11.3434C13.3656 11.2476 13.1825 10.9359 13.1294 10.7255C13.1044 10.6264 13.0949 10.5109 13.1154 10.3838C13.1255 10.3212 13.1482 10.2232 13.2044 10.1126C13.2538 10.0154 13.3805 9.80852 13.6477 9.67871L14.5218 11.4776ZM14.2679 9.41094C14.1941 9.38987 14.1334 9.3816 14.1018 9.37798C14.0846 9.37601 14.0706 9.37484 14.0623 9.37419C14.058 9.37386 14.0545 9.37361 14.0523 9.37346C14.0512 9.37338 14.0503 9.37332 14.0497 9.37329C14.0494 9.37327 14.0492 9.37325 14.049 9.37324C14.0488 9.37323 14.0488 9.37323 14.0488 9.37322L13.9157 11.3688C13.9238 11.3693 13.9003 11.368 13.8738 11.3649C13.8459 11.3617 13.7888 11.3541 13.7184 11.334L14.2679 9.41094ZM14.0289 9.3721C12.997 9.32386 12.2881 9.55461 11.6986 9.88263L12.6711 11.6303C12.9567 11.4713 13.2988 11.3401 13.9355 11.3699L14.0289 9.3721ZM11.7012 9.88121C12.059 9.68346 12.4888 9.74094 12.7812 9.99278L11.4757 11.508C11.7995 11.787 12.2739 11.8498 12.6686 11.6317L11.7012 9.88121ZM12.7761 9.98845C12.9786 10.1606 13.0853 10.3948 13.1071 10.622L11.1163 10.8134C11.1406 11.0658 11.2589 11.3237 11.4808 11.5123L12.7761 9.98845ZM13.1079 10.6298C13.1002 10.5432 13.0882 10.4614 13.078 10.3973C13.0728 10.3646 13.0674 10.3322 13.0627 10.3043C13.0579 10.275 13.0537 10.2501 13.0499 10.2259C13.0321 10.1134 13.0351 10.0948 13.034 10.1137L11.0378 9.98923C11.0241 10.2101 11.0558 10.4204 11.0745 10.5384C11.1001 10.7001 11.1104 10.7471 11.1156 10.8056L13.1079 10.6298ZM13.034 10.1127C13.0683 9.55386 12.6479 9.03191 12.0422 9.00003L11.9371 10.9973C11.3866 10.9683 11.0069 10.4938 11.0378 9.99017L13.034 10.1127ZM12.0483 9.00037L12.0401 8.99989L11.9227 10.9964L11.9309 10.9969L12.0483 9.00037ZM12.0369 8.9997C12.5414 9.02773 12.9349 9.44519 12.9349 9.94898H10.9349C10.9349 10.5051 11.3691 10.9657 11.9259 10.9966L12.0369 8.9997ZM12.9349 9.95104L12.938 8.41921L10.938 8.41509L10.9349 9.94693L12.9349 9.95104ZM11.7184 9.39273L14.7796 10.082L15.2189 8.13081L12.1577 7.44157L11.7184 9.39273ZM15.7073 9.81257L15.708 9.81184L14.292 8.39949L14.2912 8.40021L15.7073 9.81257ZM9.6569 7.93234C9.69247 6.95296 9.72077 5.9302 9.73592 5.00994L7.73619 4.97702C7.72129 5.88197 7.69339 6.89133 7.65822 7.85975L9.6569 7.93234ZM9.73567 5.02097C9.7638 3.99814 9.77937 3.08845 9.77207 2.51262L7.77223 2.53798C7.77898 3.07026 7.7645 3.94509 7.73643 4.96599L9.73567 5.02097ZM9.77215 2.5258C9.77303 0.747564 9.0279 -0.230094 8.41103 -0.697967L7.20242 0.895536C7.32978 0.992137 7.77272 1.38424 7.77215 2.5248L9.77215 2.5258ZM8.39412 -0.710516C7.87628 -1.08637 7.15563 -1.11151 6.61203 -0.695816L7.82693 0.8929C7.62928 1.04404 7.37668 1.02229 7.21933 0.908085L8.39412 -0.710516ZM6.61535 -0.698346C6.00242 -0.23368 5.24687 0.739162 5.23712 2.51836L7.23709 2.52933C7.24332 1.39312 7.6894 0.997177 7.82361 0.895431L6.61535 -0.698346ZM5.2371 2.52339C5.23685 3.07248 5.24965 3.96074 5.271 4.96389L7.27055 4.92132C7.24926 3.92143 7.23686 3.05086 7.2371 2.52429L5.2371 2.52339ZM5.27104 4.96562C5.29241 5.89375 5.31963 6.92786 5.35272 7.9279L7.35163 7.86176C7.31882 6.87039 7.29178 5.84333 7.27051 4.91959L5.27104 4.96562ZM5.35278 7.92952C5.39012 9.00533 5.4369 10.0406 5.49043 10.8362C5.51708 11.2323 5.54619 11.5812 5.57808 11.8503C5.59385 11.9834 5.61207 12.1124 5.63404 12.2245C5.64495 12.2802 5.65945 12.3455 5.67917 12.4121C5.694 12.4623 5.73178 12.5848 5.81133 12.713L7.5108 11.6586C7.54768 11.718 7.56861 11.7672 7.57805 11.7908C7.5886 11.8172 7.59454 11.8365 7.59693 11.8445C7.60141 11.8597 7.60078 11.8606 7.59669 11.8398C7.58866 11.7988 7.57736 11.7261 7.56419 11.615C7.5382 11.3956 7.51175 11.0859 7.48592 10.702C7.43449 9.93761 7.3886 8.92691 7.35157 7.86014L5.35278 7.92952ZM6.66106 12.1858C5.68215 12.3901 5.68216 12.3901 5.68217 12.3902C5.68217 12.3902 5.68219 12.3903 5.6822 12.3903C5.68222 12.3904 5.68224 12.3905 5.68228 12.3907C5.68234 12.391 5.68244 12.3915 5.68255 12.392C5.68279 12.3931 5.68313 12.3948 5.68356 12.3968C5.68443 12.401 5.6857 12.407 5.68735 12.4149C5.69065 12.4305 5.69547 12.4533 5.70166 12.4824C5.71406 12.5406 5.732 12.6243 5.75438 12.7269C5.79909 12.9318 5.86177 13.2136 5.93358 13.5204C6.0718 14.1109 6.26057 14.8683 6.42618 15.3181L8.30301 14.6271C8.18711 14.3123 8.02411 13.6762 7.88095 13.0646C7.81206 12.7702 7.75164 12.4987 7.70842 12.3006C7.68684 12.2016 7.66961 12.1213 7.65783 12.066C7.65194 12.0383 7.64741 12.0169 7.64439 12.0025C7.64288 11.9954 7.64174 11.99 7.641 11.9864C7.64063 11.9847 7.64036 11.9834 7.64018 11.9825C7.6401 11.9821 7.64004 11.9818 7.64 11.9817C7.63998 11.9816 7.63997 11.9815 7.63997 11.9815C7.63997 11.9815 7.63997 11.9815 7.63996 11.9815C7.63997 11.9815 7.63997 11.9815 6.66106 12.1858ZM6.42697 15.3202C6.7863 16.2893 8.21053 16.3551 8.58299 15.3076L6.69856 14.6376C6.97799 13.8517 8.03883 13.9146 8.30222 14.6249L6.42697 15.3202ZM8.57877 15.3192C8.74498 14.8695 8.93456 14.1122 9.07338 13.5218C9.1455 13.2151 9.20846 12.9334 9.25337 12.7285C9.27585 12.6259 9.29387 12.5423 9.30633 12.4841C9.31255 12.455 9.31739 12.4322 9.32071 12.4165C9.32236 12.4087 9.32364 12.4027 9.32451 12.3985C9.32495 12.3964 9.32529 12.3948 9.32553 12.3937C9.32564 12.3931 9.32574 12.3927 9.3258 12.3924C9.32584 12.3922 9.32587 12.3921 9.32589 12.392C9.3259 12.3919 9.32591 12.3919 9.32591 12.3919C9.32592 12.3918 9.32593 12.3918 8.34722 12.1865C7.36851 11.9813 7.36851 11.9813 7.36851 11.9813C7.36851 11.9813 7.36851 11.9813 7.36851 11.9813C7.36851 11.9813 7.36849 11.9813 7.36848 11.9814C7.36844 11.9816 7.36838 11.9819 7.36829 11.9823C7.36812 11.9831 7.36785 11.9844 7.36747 11.9862C7.36673 11.9897 7.36559 11.9951 7.36407 12.0023C7.36103 12.0167 7.35649 12.0381 7.35057 12.0657C7.33874 12.121 7.32143 12.2014 7.29975 12.3003C7.25634 12.4983 7.19566 12.7698 7.12647 13.064C6.98269 13.6756 6.81905 14.3113 6.70278 14.6259L8.57877 15.3192ZM9.21325 12.6865C9.28521 12.5619 9.31914 12.4439 9.33232 12.3963C9.35005 12.3324 9.36325 12.2693 9.37331 12.215C9.39357 12.1055 9.41068 11.9787 9.42571 11.8466C9.4561 11.5796 9.48449 11.2325 9.51112 10.8373C9.56458 10.0436 9.61389 9.00996 9.65676 7.93593L7.65835 7.85615C7.61571 8.92446 7.56726 9.93662 7.51564 10.7029C7.48973 11.0876 7.46375 11.399 7.43854 11.6204C7.42578 11.7325 7.41479 11.8073 7.40672 11.8509C7.40261 11.8731 7.40159 11.8744 7.40506 11.8619C7.40692 11.8552 7.41196 11.8376 7.42111 11.8131C7.42918 11.7915 7.44781 11.7444 7.48119 11.6865L9.21325 12.6865ZM7.21436 12.0057C7.21363 12.0035 7.2129 12.0013 7.21217 11.9992C7.21144 11.997 7.21072 11.9948 7.21 11.9926L5.31263 12.6251C5.31337 12.6273 5.3141 12.6295 5.31482 12.6317C5.31555 12.6339 5.31627 12.636 5.31699 12.6382L7.21436 12.0057ZM5.77381 11.4358L3.64383 12.625L4.61884 14.3713L6.74882 13.182L5.77381 11.4358ZM3.13133 13.4981V14.161H5.13133V13.4981H3.13133ZM4.36172 15.1341L6.7817 14.5611L6.32091 12.6149L3.90094 13.1879L4.36172 15.1341ZM7.52367 13.3546C7.38879 12.7927 7.28032 12.28 7.24237 12.1073L5.28898 12.5366C5.32323 12.6924 5.43813 13.235 5.57894 13.8215L7.52367 13.3546ZM7.75542 12.1225C7.72457 12.2741 7.61327 12.789 7.47728 13.356L9.42213 13.8224C9.5628 13.2359 9.67923 12.6983 9.71524 12.5214L7.75542 12.1225ZM8.21931 14.5623L10.6434 15.1363L11.1042 13.1901L8.68009 12.6161L8.21931 14.5623ZM11.8738 14.1632V13.5032H9.87379V14.1632H11.8738ZM11.3628 12.631L9.22994 11.4352L8.25187 13.1797L10.3848 14.3755L11.3628 12.631ZM7.84648 11.8602C7.80341 11.9463 7.77591 12.0379 7.78665 12.0057L9.68401 12.6382C9.69766 12.5973 9.67259 12.6801 9.63533 12.7546L7.84648 11.8602ZM5.60543 12.8401C6.01735 12.7364 6.22867 12.4318 6.28763 12.3421L4.61666 11.2431C4.64 11.2076 4.67978 11.1542 4.74273 11.0977C4.80037 11.0459 4.92459 10.9491 5.11717 10.9006L5.60543 12.8401ZM6.28819 12.3413C6.34725 12.2513 6.40378 12.1408 6.44185 12.0158C6.45959 11.9575 6.48748 11.8507 6.48999 11.7167C6.49152 11.6351 6.49373 11.2528 6.16499 10.9484L4.80617 12.4159C4.63728 12.2595 4.56114 12.0816 4.52696 11.9608C4.49309 11.8412 4.4892 11.7404 4.49034 11.6793C4.49257 11.5598 4.51702 11.4712 4.52858 11.4332C4.55429 11.3487 4.58757 11.2874 4.6161 11.244L6.28819 12.3413ZM6.06199 10.865C5.11337 10.1958 4.09819 10.2785 3.71057 10.2412L3.51906 12.232C4.35537 12.3125 4.52727 12.2299 4.90916 12.4993L6.06199 10.865ZM3.82435 10.2588C3.84276 10.2628 3.85714 10.2665 3.8656 10.2688C3.87384 10.271 3.8795 10.2727 3.8788 10.2725L3.31062 12.1901C3.31987 12.1928 3.35813 12.2043 3.40529 12.2144L3.82435 10.2588ZM4.54472 11.5435C4.70474 11.0566 4.58278 10.5352 4.26068 10.1678L2.75673 11.4861C2.63086 11.3426 2.57528 11.1303 2.6447 10.9191L4.54472 11.5435ZM4.26015 10.1671C4.41179 10.3398 4.50461 10.574 4.49518 10.8286L2.49655 10.7546C2.48615 11.0353 2.58818 11.2942 2.75727 11.4867L4.26015 10.1671ZM4.49481 10.8375C4.49652 10.8004 4.49732 10.7635 4.49732 10.7266H2.49732C2.49732 10.7344 2.49715 10.7406 2.49692 10.7456L4.49481 10.8375ZM4.49728 10.7349C4.49857 10.5797 4.4717 10.4524 4.45207 10.3735C4.43818 10.3177 4.40933 10.2201 4.40708 10.2121C4.39225 10.1593 4.37737 10.1002 4.371 9.99404L2.37459 10.1137C2.39172 10.3995 2.43971 10.6038 2.48157 10.7528C2.49007 10.7831 2.49977 10.8161 2.50409 10.831C2.50678 10.8403 2.50854 10.8465 2.50983 10.8512C2.51109 10.8557 2.51145 10.8572 2.51129 10.8566C2.51122 10.8563 2.49667 10.8005 2.49735 10.7184L4.49728 10.7349ZM4.37081 9.99095C4.33503 9.42351 3.84934 8.97787 3.26746 9.00904L3.37445 11.0062C2.84683 11.0344 2.40717 10.6305 2.37478 10.1168L4.37081 9.99095ZM3.27413 9.00871L3.25863 9.00943L3.35226 11.0072L3.36777 11.0065L3.27413 9.00871ZM3.25379 9.00967C3.79002 8.98194 4.2536 9.40747 4.2536 9.9594H2.2536C2.2536 10.5675 2.76467 11.0376 3.3571 11.007L3.25379 9.00967ZM4.25359 9.95468L4.24608 8.36446L2.2461 8.3739L2.25361 9.96412L4.25359 9.95468ZM3.46513 9.3449L4.61879 9.08592L4.18072 7.13448L3.02706 7.39346L3.46513 9.3449ZM4.61802 9.08609C5.06643 8.9858 5.52041 8.92563 5.97916 8.90656L5.89613 6.90829C5.31702 6.93235 4.74476 7.00833 4.18148 7.13431L4.61802 9.08609ZM6.93706 7.87318C6.9086 7.04262 6.8816 6.1096 6.86184 5.15829L4.86227 5.19982C4.88224 6.16142 4.90951 7.10352 4.93823 7.94167L6.93706 7.87318ZM5.36797 4.30964L2.76582 5.78841L3.75398 7.52725L6.35614 6.04847L5.36797 4.30964ZM4.2599 6.65741L4.25917 4.91166L2.25917 4.91249L2.2599 6.65825L4.2599 6.65741ZM4.25917 4.91208C4.25917 5.45124 3.80812 5.88996 3.25912 5.86156L3.36243 3.86423C2.75723 3.83293 2.25917 4.31671 2.25917 4.91208H4.25917ZM3.26396 5.8618L3.27946 5.86253L3.3731 3.86472L3.35759 3.86399L3.26396 5.8618ZM3.28128 5.86261C3.84663 5.88808 4.3451 5.45581 4.37645 4.87061L2.37932 4.76362C2.40776 4.23268 2.85971 3.84159 3.37128 3.86464L3.28128 5.86261ZM4.37638 4.872C4.38221 4.76589 4.39679 4.70678 4.41141 4.65377C4.4137 4.64544 4.442 4.54805 4.45571 4.49165C4.475 4.41235 4.50123 4.28441 4.4989 4.12869L2.49913 4.15854C2.49789 4.07586 2.51222 4.0196 2.51237 4.019C2.51254 4.01829 2.51221 4.01969 2.51099 4.02419C2.50974 4.0288 2.50803 4.03496 2.50539 4.04425C2.50119 4.05901 2.49162 4.09216 2.4833 4.12235C2.44219 4.27151 2.39512 4.47611 2.37939 4.76222L4.37638 4.872ZM4.49902 4.14362C4.49902 4.09984 4.49758 4.05872 4.49543 4.02131L2.49872 4.13607C2.499 4.14082 2.49902 4.14331 2.49902 4.14362H4.49902ZM4.49554 4.02322C4.51065 4.29519 4.40934 4.53373 4.26225 4.70182L2.7571 3.38482C2.59305 3.57229 2.48205 3.83603 2.49862 4.13416L4.49554 4.02322ZM4.26467 4.69906C4.58602 4.32906 4.70376 3.80714 4.54259 3.32277L2.64489 3.95422C2.57529 3.74506 2.62859 3.53276 2.75468 3.38758L4.26467 4.69906ZM3.90997 4.58718C3.88939 4.59404 3.85998 4.60289 3.82338 4.61073L3.40432 2.65512C3.35415 2.66587 3.31117 2.6786 3.27751 2.68981L3.90997 4.58718ZM3.71476 4.62782C4.10166 4.58858 5.11761 4.66614 6.06278 3.99215L4.9016 2.36376C4.5211 2.63509 4.34898 2.55323 3.51294 2.63803L3.71476 4.62782ZM6.16159 3.91171C6.49146 3.60629 6.48834 3.22261 6.48648 3.13976C6.48346 3.00501 6.45487 2.89787 6.43686 2.83974C6.39814 2.7148 6.34113 2.60494 6.28232 2.51604L4.61422 3.61941C4.58618 3.57702 4.55266 3.51622 4.52648 3.43174C4.51474 3.39384 4.48968 3.30478 4.48698 3.18456C4.4856 3.12305 4.48919 3.02152 4.52306 2.90103C4.55732 2.77916 4.63369 2.60076 4.80278 2.44419L6.16159 3.91171ZM6.28118 2.51431C6.22079 2.42343 6.00741 2.12013 5.59467 2.01911L5.1192 3.96177C4.92626 3.91455 4.80133 3.81853 4.74314 3.76694C4.67961 3.7106 4.63925 3.65709 4.61536 3.62113L6.28118 2.51431ZM5.52473 2.00462C4.78171 1.87815 3.98638 1.99718 2.99454 2.57781L4.00494 4.30381C4.34362 4.10555 4.5868 4.02019 4.75993 3.98421C4.92518 3.94986 5.05759 3.95387 5.18914 3.97626L5.52473 2.00462ZM2.99272 2.57888C3.28765 2.40539 3.70086 2.38615 4.03687 2.63149L2.85748 4.24674C3.22401 4.51437 3.67889 4.49561 4.00676 4.30274L2.99272 2.57888ZM4.03098 2.62723C3.55129 2.28229 2.90406 2.27371 2.40885 2.60412L3.51886 4.26781C3.32938 4.39423 3.06881 4.39874 2.86336 4.251L4.03098 2.62723ZM2.40799 2.60469C2.01659 2.86641 1.78975 3.29234 1.77249 3.73683L3.77099 3.81441C3.76391 3.99676 3.67128 4.16589 3.51972 4.26724L2.40799 2.60469ZM1.77238 3.73993C1.79006 3.24474 2.1973 2.8191 2.731 2.82387L2.71315 4.82379C3.30112 4.82904 3.75148 4.36077 3.7711 3.81131L1.77238 3.73993ZM2.73643 2.82393C1.63051 2.80805 0.981771 3.10327 0.446848 3.42255L1.47188 5.1399C1.64848 5.03449 1.79085 4.96228 1.95924 4.91108C2.12688 4.86012 2.35879 4.81872 2.70772 4.82373L2.73643 2.82393ZM0.522314 3.38179C0.245256 3.51641 0.11088 3.73328 0.0553403 3.84346C-0.00690295 3.96694 -0.0337587 4.08099 -0.0463488 4.16145C-0.0718322 4.32432 -0.0598862 4.48445 -0.0226665 4.62862C0.0548332 4.92881 0.302199 5.33346 0.815988 5.45819L1.28783 3.51465C1.67588 3.60886 1.85978 3.91927 1.91384 4.12867C1.93934 4.22744 1.94957 4.34304 1.92961 4.47064C1.91978 4.53346 1.89749 4.63219 1.84127 4.74371C1.79176 4.84193 1.66487 5.05021 1.39641 5.18066L0.522314 3.38179ZM0.84238 5.46422C0.903302 5.47728 0.956502 5.48301 0.996292 5.48566L1.12933 3.49009C1.1476 3.49131 1.16693 3.49315 1.18728 3.49582C1.2072 3.49843 1.23239 3.50239 1.26144 3.50862L0.84238 5.46422ZM1.02104 5.487C2.05316 5.53016 2.76098 5.29577 3.34896 4.9644L2.36701 3.22205C2.08235 3.38248 1.74117 3.51536 1.10459 3.48875L1.02104 5.487ZM3.34659 4.96573C2.99292 5.16379 2.56002 5.11365 2.26172 4.85665L3.56714 3.34143C3.23735 3.0573 2.75939 3.00231 2.36938 3.22072L3.34659 4.96573ZM2.26678 4.86098C2.07537 4.69828 1.95981 4.47032 1.93616 4.22908L3.92662 4.03393C3.90055 3.76798 3.77287 3.51627 3.56208 3.3371L2.26678 4.86098ZM1.93569 4.22413C1.94376 4.31085 1.95625 4.39269 1.96675 4.45676C1.97211 4.48944 1.97769 4.52189 1.98248 4.54978C1.9875 4.57901 1.99178 4.60397 1.99574 4.62818C2.01413 4.74058 2.01117 4.75909 2.01226 4.7401L4.00896 4.85488C4.02168 4.6336 3.98881 4.42329 3.96952 4.30536C3.94307 4.14364 3.9325 4.09699 3.92709 4.03888L1.93569 4.22413ZM2.01199 4.74493C1.98249 5.30552 2.40721 5.81696 3.0041 5.84865L3.11015 3.85147C3.65229 3.88025 4.03583 4.3447 4.00923 4.85005L2.01199 4.74493ZM2.99841 5.84833L3.00665 5.84882L3.12408 3.85227L3.11584 3.85178L2.99841 5.84833ZM3.01912 5.84947C2.51209 5.826 2.11212 5.40816 2.11212 4.89948H4.11212C4.11212 4.33847 3.67097 3.87751 3.11161 3.85161L3.01912 5.84947ZM2.11212 4.90251L2.1177 6.74129L4.11769 6.73523L4.11212 4.89645L2.11212 4.90251ZM2.62347 5.86892L-0.494217 7.64132L0.494217 9.38L3.61191 7.6076L2.62347 5.86892ZM-1 8.51066V9.09791H1V8.51066H-1ZM0.218987 10.0736L3.32238 9.37713L2.88441 7.42567L-0.218987 8.12218L0.218987 10.0736ZM2.1034 8.40341L2.10655 9.97449L4.10655 9.97048L4.1034 8.3994L2.1034 8.40341ZM2.10655 9.97248C2.10655 9.46867 2.50005 9.05123 3.00456 9.0232L3.1155 11.0201C3.67234 10.9892 4.10655 10.5286 4.10655 9.97248H2.10655ZM3.00143 9.02338L2.9932 9.02386L3.1104 11.0204L3.11863 11.0199L3.00143 9.02338ZM2.99924 9.02353C2.39355 9.05541 1.97309 9.57738 2.0074 10.1362L4.00364 10.0137C4.03457 10.5173 3.6548 10.9918 3.10435 11.0208L2.99924 9.02353ZM2.00746 10.1372C2.00629 10.1183 2.00931 10.137 1.99152 10.2495C1.98769 10.2737 1.98354 10.2987 1.97867 10.3279C1.97403 10.3558 1.96862 10.3882 1.96344 10.4209C1.95328 10.4849 1.94122 10.5666 1.93358 10.6532L3.92581 10.8292C3.93098 10.7707 3.94136 10.7238 3.96696 10.5619C3.98563 10.4439 4.01736 10.2336 4.00359 10.0127L2.00746 10.1372ZM1.93429 10.6455C1.95423 10.438 2.04953 10.1956 2.26581 10.0117L3.56111 11.5356C3.79678 11.3353 3.90274 11.0695 3.9251 10.8369L1.93429 10.6455ZM2.26649 10.0111C2.5458 9.77414 2.97318 9.69915 3.34513 9.90744L2.36793 11.6525C2.77622 11.8811 3.24914 11.8003 3.56044 11.5362L2.26649 10.0111ZM3.34279 9.90613C2.75332 9.57811 2.04444 9.34735 1.01248 9.3956L1.10587 11.3934C1.74263 11.3636 2.08468 11.4948 2.37027 11.6538L3.34279 9.90613ZM1.05918 9.39451C0.992041 9.39451 0.937904 9.40115 0.905409 9.40602C0.888748 9.40852 0.875189 9.41096 0.866729 9.41255C0.862401 9.41336 0.858821 9.41406 0.856481 9.41452C0.854301 9.41495 0.852372 9.41534 0.852159 9.41538L1.24439 11.3765C1.25031 11.3754 1.22827 11.38 1.20204 11.3839C1.17318 11.3882 1.12268 11.3945 1.05918 11.3945V9.39451ZM0.808822 9.42505C0.294945 9.55179 0.0489528 9.95801 -0.0271337 10.2593C-0.0636361 10.4039 -0.0746112 10.564 -0.0483867 10.7263C-0.035426 10.8065 -0.00813549 10.9199 0.0541983 11.0425C0.109698 11.1516 0.243892 11.3671 0.519649 11.5011L1.39375 9.7022C1.66091 9.83202 1.78758 10.0389 1.837 10.1361C1.89326 10.2467 1.9159 10.3447 1.92601 10.4073C1.94654 10.5344 1.93703 10.6499 1.91201 10.749C1.85887 10.9594 1.67587 11.2711 1.28773 11.3669L0.808822 9.42505ZM0.448809 11.4631C0.985257 11.7793 1.63499 12.0713 2.74092 12.0499L2.70226 10.0503C2.35329 10.057 2.12123 10.0168 1.95339 9.96666C1.78476 9.91633 1.64204 9.84484 1.46459 9.74022L0.448809 11.4631ZM2.73944 12.0499C2.19576 12.0596 1.79413 11.6273 1.77249 11.1426L3.7705 11.0534C3.74644 10.5145 3.30169 10.0396 2.70374 10.0502L2.73944 12.0499ZM1.7724 11.1405C1.79134 11.5861 2.02104 12.0117 2.41449 12.2713L3.51613 10.6021C3.66876 10.7028 3.7628 10.8721 3.77059 11.0556L1.7724 11.1405ZM2.41335 12.2706C2.91164 12.6004 3.5595 12.5869 4.03663 12.24L2.86062 10.6223C3.06448 10.4741 3.32569 10.476 3.51727 10.6029L2.41335 12.2706ZM4.03832 12.2388C3.70296 12.4836 3.29414 12.4633 3.00368 12.2967L3.99871 10.5618C3.6753 10.3763 3.22481 10.3564 2.85893 10.6235L4.03832 12.2388ZM3.00042 12.2948C3.99475 12.8701 4.79134 12.9856 5.53403 12.8553L5.18856 10.8854C5.0573 10.9084 4.92469 10.9131 4.75891 10.8795C4.58529 10.8443 4.3415 10.7601 4.00197 10.5636L3.00042 12.2948ZM7.5133 13.8498C7.24772 13.7598 6.84446 13.6429 6.40674 13.6126C5.98204 13.5832 5.38454 13.6258 4.86605 14.0097L6.05613 15.6171C6.02847 15.6376 6.0657 15.5938 6.26846 15.6078C6.4582 15.621 6.67513 15.6775 6.87131 15.744L7.5133 13.8498ZM4.86586 14.0098C4.54883 14.2447 4.4424 14.5884 4.44141 14.8515C4.44043 15.1135 4.54337 15.4578 4.8582 15.6954L6.06301 14.099C6.35216 14.3173 6.44226 14.6294 6.4414 14.8591C6.44053 15.09 6.34718 15.4015 6.05632 15.617L4.86586 14.0098ZM4.85549 15.6934C5.39713 16.105 6.04276 16.1337 6.46318 16.1037C6.91133 16.0717 7.31743 15.9567 7.55182 15.8798L6.92776 13.9796C6.7675 14.0322 6.53693 14.0933 6.32062 14.1088C6.07656 14.1262 6.02993 14.0739 6.06572 14.1011L4.85549 15.6934ZM8.18671 14.6082C8.18588 14.6058 8.18461 14.6019 8.18047 14.5892C8.17708 14.5787 8.17155 14.5617 8.16537 14.5435C8.15374 14.5092 8.13277 14.4493 8.10267 14.3831L6.28194 15.2107C6.27588 15.1974 6.27231 15.1882 6.27111 15.185C6.26986 15.1817 6.2698 15.1813 6.27127 15.1857C6.27287 15.1904 6.27475 15.1961 6.27848 15.2076C6.28012 15.2126 6.28235 15.2195 6.28461 15.2264C6.28692 15.2334 6.28974 15.2419 6.29287 15.2512L8.18671 14.6082ZM10.1344 14.0097C9.61591 13.6258 9.01841 13.5832 8.59371 13.6126C8.15599 13.6429 7.75273 13.7598 7.48715 13.8498L8.12914 15.744C8.32532 15.6775 8.54225 15.621 8.73199 15.6078C8.93475 15.5938 8.97198 15.6376 8.94433 15.6171L10.1344 14.0097ZM6.8969 14.3851C6.86749 14.4501 6.84685 14.5089 6.83522 14.5432C6.82906 14.5613 6.82356 14.5782 6.82014 14.5887C6.81599 14.6015 6.81467 14.6055 6.81375 14.6082L8.70758 15.2512C8.71332 15.2342 8.71884 15.2172 8.72181 15.2081C8.72552 15.1967 8.72742 15.1909 8.72905 15.1861C8.73055 15.1817 8.73058 15.1818 8.72946 15.1848C8.72838 15.1876 8.72506 15.1962 8.71939 15.2088L6.8969 14.3851ZM7.44811 15.8796C7.6828 15.9568 8.08897 16.0718 8.53719 16.1039C8.95767 16.134 9.60331 16.1053 10.145 15.6936L8.93474 14.1013C8.97053 14.0741 8.92391 14.1264 8.67992 14.109C8.46367 14.0935 8.23317 14.0324 8.07321 13.9798L7.44811 15.8796ZM10.147 15.692C10.4592 15.4534 10.5604 15.1103 10.5589 14.8497C10.5575 14.589 10.4524 14.2474 10.1382 14.0125L8.94056 15.6143C8.65224 15.3987 8.56026 15.0894 8.55897 14.861C8.55769 14.6327 8.64613 14.3219 8.93268 14.1029L10.147 15.692Z" fill="#757575" mask="url(#path-1-inside-1_232_1822)"/>
</svg>
